<svg xmlns="http://www.w3.org/2000/svg" viewBox="0 0 1466.82 350" width="1466.82" height="350"><g fill="#E8C24B" ><path d="M112.5 -9.5Q86.5 -9.5 73.75 -1.0Q61 7.5 56.75 21.5Q52.5 35.5 52.5 52V629.5Q52.5 645.5 56.25 659.25Q60 673 73.0 681.5Q86 690 113.5 689.5L302 689Q375 689 436.25 663.75Q497.5 638.5 542.5 592.5Q587.5 546.5 612.0 483.0Q636.5 419.5 636.5 343.5Q636.5 265.5 611.75 200.75Q587 136 542.0 89.0Q497 42 435.25 16.25Q373.5 -9.5 299 -9.5ZM173.5 112H302Q365.5 112 413.5 140.5Q461.5 169 488.25 220.0Q515 271 515 339Q515 407.5 488.25 459.0Q461.5 510.5 413.25 539.0Q365 567.5 301 567.5H173.5Z" transform="translate(164.000 85.920) scale(0.02400 -0.02400)"/><path d="M111.5 -10Q83.5 -10 70.75 -1.75Q58 6.5 54.75 20.75Q51.5 35 51.5 51.5V628.5Q51.5 645 55.0 658.75Q58.5 672.5 71.25 680.75Q84 689 112.5 689Q141 689 153.5 680.75Q166 672.5 169.25 658.75Q172.5 645 172.5 627.5V50.5Q172.5 34 169.0 20.25Q165.5 6.5 152.75 -1.75Q140 -10 111.5 -10Z" transform="translate(185.320 85.920) scale(0.02400 -0.02400)"/><path d="M391.5 -14.5Q342.5 -14.5 292.5 0.25Q242.5 15 196.75 44.25Q151 73.5 115.25 117.25Q79.5 161 58.75 218.25Q38 275.5 38 346Q38 414.5 58.75 470.0Q79.5 525.5 115.0 567.5Q150.5 609.5 196.25 637.75Q242 666 292.5 680.5Q343 695 393 695.5Q443.5 695.5 480.5 684.5Q517.5 673.5 540.75 661.25Q564 649 571.5 644Q587.5 634 602.0 621.5Q616.5 609 617.5 590.5Q618.5 579 614.5 569.5Q610.5 560 603.5 550Q591.5 532.5 579.75 524.5Q568 516.5 556 516.5Q545 516.5 535.5 522.5Q526 528.5 512 537.5Q505.5 542 490.0 550.25Q474.5 558.5 449.25 565.75Q424 573 387.5 573Q344.5 573 303.5 557.75Q262.5 542.5 230.0 513.0Q197.5 483.5 178.5 440.25Q159.5 397 159.5 341Q159.5 284.5 178.75 241.25Q198 198 230.5 168.5Q263 139 304.0 123.75Q345 108.5 387.5 108.5Q421.5 108.5 446.25 115.25Q471 122 488.25 131.25Q505.5 140.5 514.5 146Q525.5 153 535.5 159.0Q545.5 165 556.5 165Q568.5 165 580.0 156.75Q591.5 148.5 603 130.5Q610 120 614.0 109.75Q618 99.5 617 88.5Q616 70.5 601.5 58.25Q587 46 571 36.5Q563 32 540.25 19.25Q517.5 6.5 480.5 -4.0Q443.5 -14.5 391.5 -14.5Z" transform="translate(195.696 85.920) scale(0.02400 -0.02400)"/><path d="M123.5 -10Q95.5 -10 82.75 -1.75Q70 6.5 66.75 20.75Q63.5 35 63.5 51.5V628.5Q63.5 663 77.25 676.0Q91 689 126.5 689H516.5Q533.5 689 547.0 685.5Q560.5 682 568.5 669.25Q576.5 656.5 576.5 627.5Q576.5 599.5 568.25 586.75Q560 574 546.25 570.75Q532.5 567.5 515.5 567.5H184.5V399.5H412.5Q429.5 399.5 441.75 396.25Q454 393 461.0 381.75Q468 370.5 468 344.5Q468 320 461.0 308.5Q454 297 441.0 294.25Q428 291.5 410.5 291.5H184.5V111.5H516.5Q533.5 111.5 547.0 108.0Q560.5 104.5 568.5 91.75Q576.5 79 576.5 50.5Q576.5 22.5 568.25 9.75Q560 -3 546.25 -6.5Q532.5 -10 515.5 -10Z" transform="translate(216.416 85.920) scale(0.02400 -0.02400)"/><path d="M62.5 200Q49.5 200 37.25 203.0Q25 206 17.25 218.0Q9.5 230 9.5 256.5Q9.5 283 17.25 294.5Q25 306 37.25 309.25Q49.5 312.5 62 312.5H310.5Q324 312.5 336.0 309.25Q348 306 355.5 294.25Q363 282.5 363 256Q363 230 355.5 218.0Q348 206 336.0 203.0Q324 200 309.5 200Z" transform="translate(236.224 85.920) scale(0.02400 -0.02400)"/><path d="M117.5 -9.5Q89.5 -9.5 76.75 -1.25Q64 7 60.75 21.25Q57.5 35.5 57.5 52V628.5Q57.5 644.5 61.25 658.25Q65 672 78.0 680.5Q91 689 118.5 689H330.5Q375 689 416.75 674.0Q458.5 659 492.0 628.75Q525.5 598.5 545.25 554.5Q565 510.5 565 452Q565 394 545.25 350.25Q525.5 306.5 491.75 276.75Q458 247 416.25 232.0Q374.5 217 329.5 217H179V51Q179 34.5 175.5 20.75Q172 7 159.25 -1.25Q146.5 -9.5 117.5 -9.5ZM179 338.5H330.5Q361.5 338.5 387.25 351.0Q413 363.5 428.75 389.25Q444.5 415 444.5 453.5Q444.5 488.5 430.25 514.0Q416 539.5 390.25 553.5Q364.5 567.5 329.5 567.5H179Z" transform="translate(251.256 85.920) scale(0.02400 -0.02400)"/><path d="M369 -18Q297.0897435897436 -18 234.2948717948718 9.25Q171.5 36.5 123.75 85.0Q76 133.5 49.0 197.19485294117646Q22 260.8897058823529 22 333.68382352941177Q22 408.5 48.270833333333336 474.0701754385965Q74.54166666666667 539.640350877193 121.02083333333334 589.0701754385965Q167.5 638.5 228.9272030651341 666.5Q290.3544061302682 694.5 360.411877394636 694.5Q432.5 694.5 495.3037037037037 667.3071428571429Q558.1074074074074 640.1142857142858 605.2101851851852 591.2678571428571Q652.312962962963 542.4214285714286 679.1564814814815 477.4607142857143Q706 412.5 706 337.55128205128204Q706 264.62820512820514 679.75 200.31410256410257Q653.5 136 606.8490566037735 86.6797385620915Q560.1981132075472 37.35947712418301 499.3490566037736 9.679738562091504Q438.5 -18 369 -18ZM363.5046511627907 103.5Q409.5 103.5 449.75 121.5Q490 139.5 520.25 171.5Q550.5 203.5 567.5 246.22687224669605Q584.5 288.9537444933921 584.5 338.1299559471366Q584.5 386.5 567.25 429.0Q550 471.5 519.5 504.0Q489 536.5 449.2803738317757 554.75Q409.5607476635514 573 364.2803738317757 573Q319 573 279.0 554.75Q239 536.5 208.5 504.25Q178 472 160.75 429.1765350877193Q143.5 386.3530701754386 143.5 337.5263157894737Q143.5 289.5 161.00833333333333 246.9005376344086Q178.51666666666665 204.30107526881721 208.75833333333333 172.1505376344086Q239 140 278.65116279069764 121.75Q318.30232558139534 103.5 363.5046511627907 103.5Z" transform="translate(270.632 85.920) scale(0.02400 -0.02400)"/><path d="M284 -7Q263.5 -7 251.75 0.5Q240 8 234.5 18.0Q229 28 227 34.5L31 608.5Q21 641 28.0 657.5Q35 674 69 685Q91.5 692.5 105.5 691.75Q119.5 691 129.0 680.5Q138.5 670 145.5 648L290 211.5L418.5 644Q421.5 653.5 427.0 664.0Q432.5 674.5 444.5 681.75Q456.5 689 477.5 689Q501.5 689 513.75 681.0Q526 673 531.25 663.25Q536.5 653.5 538.5 646L668 209L812.5 647Q820 669.5 829.25 680.5Q838.5 691.5 853.5 693.0Q868.5 694.5 891 686.5Q914 678.5 923.75 669.0Q933.5 659.5 933.75 645.25Q934 631 927 608.5L731.5 34Q729.5 27.5 724.0 17.75Q718.5 8 706.75 0.5Q695 -7 674 -7Q653 -7 640.75 1.75Q628.5 10.5 622.75 21.5Q617 32.5 615 38L479 477.5L343 38.5Q341 32 335.25 21.0Q329.5 10 317.5 1.5Q305.5 -7 284 -7Z" transform="translate(293.104 85.920) scale(0.02400 -0.02400)"/><path d="M123.5 -10Q95.5 -10 82.75 -1.75Q70 6.5 66.75 20.75Q63.5 35 63.5 51.5V628.5Q63.5 663 77.25 676.0Q91 689 126.5 689H516.5Q533.5 689 547.0 685.5Q560.5 682 568.5 669.25Q576.5 656.5 576.5 627.5Q576.5 599.5 568.25 586.75Q560 574 546.25 570.75Q532.5 567.5 515.5 567.5H184.5V399.5H412.5Q429.5 399.5 441.75 396.25Q454 393 461.0 381.75Q468 370.5 468 344.5Q468 320 461.0 308.5Q454 297 441.0 294.25Q428 291.5 410.5 291.5H184.5V111.5H516.5Q533.5 111.5 547.0 108.0Q560.5 104.5 568.5 91.75Q576.5 79 576.5 50.5Q576.5 22.5 568.25 9.75Q560 -3 546.25 -6.5Q532.5 -10 515.5 -10Z" transform="translate(321.120 85.920) scale(0.02400 -0.02400)"/><path d="M122 -9.5Q94 -9.5 81.25 -1.25Q68.5 7 65.25 21.25Q62 35.5 62 52V629Q62 645 65.75 658.5Q69.5 672 82.25 680.5Q95 689 123 689H337Q382.5 689 424.25 674.25Q466 659.5 499.0 630.0Q532 600.5 551.25 556.25Q570.5 512 570.5 452.5Q570.5 414 558.75 375.5Q547 337 523.25 304.25Q499.5 271.5 463.5 248.75Q427.5 226 378.5 219H183V51Q183 34.5 179.5 20.75Q176 7 163.25 -1.25Q150.5 -9.5 122 -9.5ZM547.5 6Q518.5 -14.5 500.25 -9.25Q482 -4 463.5 22.5L295.5 276.5L430.5 295L564 92.5Q577.5 72.5 580.75 58.5Q584 44.5 576.0 32.5Q568 20.5 547.5 6ZM183 338.5H352Q370 338.5 387.5 345.25Q405 352 418.75 366.25Q432.5 380.5 441.0 402.0Q449.5 423.5 449.5 453.5Q449.5 489.5 435.75 515.0Q422 540.5 396.5 554.0Q371 567.5 335 567.5H183Z" transform="translate(340.928 85.920) scale(0.02400 -0.02400)"/><path d="M123.5 -10Q95.5 -10 82.75 -1.75Q70 6.5 66.75 20.75Q63.5 35 63.5 51.5V628.5Q63.5 663 77.25 676.0Q91 689 126.5 689H516.5Q533.5 689 547.0 685.5Q560.5 682 568.5 669.25Q576.5 656.5 576.5 627.5Q576.5 599.5 568.25 586.75Q560 574 546.25 570.75Q532.5 567.5 515.5 567.5H184.5V399.5H412.5Q429.5 399.5 441.75 396.25Q454 393 461.0 381.75Q468 370.5 468 344.5Q468 320 461.0 308.5Q454 297 441.0 294.25Q428 291.5 410.5 291.5H184.5V111.5H516.5Q533.5 111.5 547.0 108.0Q560.5 104.5 568.5 91.75Q576.5 79 576.5 50.5Q576.5 22.5 568.25 9.75Q560 -3 546.25 -6.5Q532.5 -10 515.5 -10Z" transform="translate(360.760 85.920) scale(0.02400 -0.02400)"/><path d="M112.5 -9.5Q86.5 -9.5 73.75 -1.0Q61 7.5 56.75 21.5Q52.5 35.5 52.5 52V629.5Q52.5 645.5 56.25 659.25Q60 673 73.0 681.5Q86 690 113.5 689.5L302 689Q375 689 436.25 663.75Q497.5 638.5 542.5 592.5Q587.5 546.5 612.0 483.0Q636.5 419.5 636.5 343.5Q636.5 265.5 611.75 200.75Q587 136 542.0 89.0Q497 42 435.25 16.25Q373.5 -9.5 299 -9.5ZM173.5 112H302Q365.5 112 413.5 140.5Q461.5 169 488.25 220.0Q515 271 515 339Q515 407.5 488.25 459.0Q461.5 510.5 413.25 539.0Q365 567.5 301 567.5H173.5Z" transform="translate(380.568 85.920) scale(0.02400 -0.02400)"/><path d="M392 -14.5Q316.5 -14.5 253.75 12.25Q191 39 145.0 87.75Q99 136.5 74.0 203.25Q49 270 49 350.5Q49 426.5 74.75 489.75Q100.5 553 147.5 599.25Q194.5 645.5 259.0 671.5Q323.5 697.5 401 698Q432.5 698 466.5 692.25Q500.5 686.5 532.5 675.0Q564.5 663.5 589 647Q607.5 635 621.25 622.25Q635 609.5 635.5 593.5Q636.5 585 632.5 574.5Q628.5 564 621 553Q609.5 536 597.0 528.0Q584.5 520 572.5 520Q566 520 555.75 525.25Q545.5 530.5 528.5 541Q515.5 549.5 494.75 557.5Q474 565.5 448.75 570.75Q423.5 576 396.5 576Q329.5 576 278.5 547.75Q227.5 519.5 199.25 468.0Q171 416.5 170.5 347.5Q171 276.5 199.75 222.75Q228.5 169 279.25 138.5Q330 108 396 108Q419 108 442.25 111.0Q465.5 114 488.0 120.0Q510.5 126 529.5 135V292.5H388Q373.5 292.5 362.0 295.5Q350.5 298.5 344.0 309.75Q337.5 321 337.5 346Q337.5 371.5 344.5 382.75Q351.5 394 363.25 397.0Q375 400 389 400H592.5Q619 399.5 631.0 390.5Q643 381.5 647.0 368.0Q651 354.5 651 337.5V105Q651 85 631.5 63.75Q612 42.5 577 25Q553.5 13 524.0 4.25Q494.5 -4.5 461.25 -9.5Q428 -14.5 392 -14.5Z" transform="translate(412.840 85.920) scale(0.02400 -0.02400)"/><path d="M369 -18Q297.0897435897436 -18 234.2948717948718 9.25Q171.5 36.5 123.75 85.0Q76 133.5 49.0 197.19485294117646Q22 260.8897058823529 22 333.68382352941177Q22 408.5 48.270833333333336 474.0701754385965Q74.54166666666667 539.640350877193 121.02083333333334 589.0701754385965Q167.5 638.5 228.9272030651341 666.5Q290.3544061302682 694.5 360.411877394636 694.5Q432.5 694.5 495.3037037037037 667.3071428571429Q558.1074074074074 640.1142857142858 605.2101851851852 591.2678571428571Q652.312962962963 542.4214285714286 679.1564814814815 477.4607142857143Q706 412.5 706 337.55128205128204Q706 264.62820512820514 679.75 200.31410256410257Q653.5 136 606.8490566037735 86.6797385620915Q560.1981132075472 37.35947712418301 499.3490566037736 9.679738562091504Q438.5 -18 369 -18ZM363.5046511627907 103.5Q409.5 103.5 449.75 121.5Q490 139.5 520.25 171.5Q550.5 203.5 567.5 246.22687224669605Q584.5 288.9537444933921 584.5 338.1299559471366Q584.5 386.5 567.25 429.0Q550 471.5 519.5 504.0Q489 536.5 449.2803738317757 554.75Q409.5607476635514 573 364.2803738317757 573Q319 573 279.0 554.75Q239 536.5 208.5 504.25Q178 472 160.75 429.1765350877193Q143.5 386.3530701754386 143.5 337.5263157894737Q143.5 289.5 161.00833333333333 246.9005376344086Q178.51666666666665 204.30107526881721 208.75833333333333 172.1505376344086Q239 140 278.65116279069764 121.75Q318.30232558139534 103.5 363.5046511627907 103.5Z" transform="translate(434.928 85.920) scale(0.02400 -0.02400)"/><path d="M121.5 -10Q93 -10 80.0 -1.75Q67 6.5 63.5 20.5Q60 34.5 60 51V628Q60 645 63.25 658.75Q66.5 672.5 79.25 680.75Q92 689 120.5 689Q149 689 161.5 680.75Q174 672.5 177.5 658.75Q181 645 181 628V98H485.5Q500.5 98 512.5 95.25Q524.5 92.5 531.75 81.0Q539 69.5 539 44.5Q539 20 531.75 8.25Q524.5 -3.5 512.75 -6.75Q501 -10 486 -10Z" transform="translate(457.400 85.920) scale(0.02400 -0.02400)"/><path d="M123.5 -10Q95.5 -10 82.75 -1.75Q70 6.5 66.75 20.75Q63.5 35 63.5 51.5V628.5Q63.5 663 77.25 676.0Q91 689 126.5 689H516.5Q533.5 689 546.75 685.5Q560 682 567.75 669.25Q575.5 656.5 575.5 627.5Q575.5 599.5 567.25 586.75Q559 574 545.25 570.75Q531.5 567.5 514.5 567.5H184.5V399.5H411.5Q428.5 399.5 441.0 396.25Q453.5 393 460.25 381.5Q467 370 467 344Q467 319.5 460.0 308.25Q453 297 440.5 294.25Q428 291.5 410.5 291.5H184.5V50.5Q184.5 34 181.0 20.25Q177.5 6.5 164.75 -1.75Q152 -10 123.5 -10Z" transform="translate(475.888 85.920) scale(0.02400 -0.02400)"/><path d="M271 -19.5Q225.5 -19.5 189.0 -8.5Q152.5 2.5 125.0 19.5Q97.5 36.5 78.75 54.75Q60 73 51 87.5Q37.5 106 33.75 119.75Q30 133.5 36.5 147.0Q43 160.5 61 176Q79 191.5 94.5 192.0Q110 192.5 124.25 182.5Q138.5 172.5 152.5 155Q177 123 206.75 109.5Q236.5 96 267 96Q306 96 335.0 106.25Q364 116.5 380.25 137.5Q396.5 158.5 396.5 191.5Q396.5 218.5 380.25 236.25Q364 254 336.75 266.5Q309.5 279 276.25 289.5Q243 300 209 312.5Q184.5 321 160.75 332.5Q137 344 116.25 359.0Q95.5 374 80.0 394.5Q64.5 415 55.75 442.0Q47 469 47 504.5Q47 561.5 75.0 605.25Q103 649 152.75 674.25Q202.5 699.5 267 699.5Q308 699.5 340.5 692.0Q373 684.5 396.5 673.25Q420 662 435.25 650.5Q450.5 639 457.5 630.5Q480.5 608 483.0 592.25Q485.5 576.5 465 550.5Q444 524 424.5 521.5Q405 519 380.5 537Q365 553.5 348.75 564.0Q332.5 574.5 313.0 579.5Q293.5 584.5 266 584.5Q245.5 584.5 227.25 579.0Q209 573.5 195.75 563.0Q182.5 552.5 175.0 537.5Q167.5 522.5 167.5 503.5Q167.5 478 182.25 461.5Q197 445 222.0 434.25Q247 423.5 277.75 414.5Q308.5 405.5 341 395.5Q374 385 405.75 370.0Q437.5 355 462.5 332.5Q487.5 310 502.75 276.5Q518 243 518 194.5Q518 139.5 496.75 98.75Q475.5 58 439.5 32.0Q403.5 6 359.75 -6.75Q316 -19.5 271 -19.5Z" transform="translate(506.840 85.920) scale(0.02400 -0.02400)"/><path d="M574 689.5Q589 689.5 600.5 686.5Q612 683.5 619.0 672.25Q626 661 626 635.5Q626 611 618.75 599.5Q611.5 588 599.5 585.25Q587.5 582.5 572.5 582.5H388.5V49.5Q388.5 33 385.0 19.5Q381.5 6 369.0 -2.0Q356.5 -10 328 -10Q300.5 -10 287.75 -1.75Q275 6.5 272.0 20.25Q269 34 269 50.5V582.5H83Q68.5 582.5 56.5 585.5Q44.5 588.5 37.25 599.75Q30 611 30 636Q30 661 37.0 672.25Q44 683.5 56.25 686.5Q68.5 689.5 82.5 689.5Z" transform="translate(525.040 85.920) scale(0.02400 -0.02400)"/><path d="M122 -9.5Q94 -9.5 81.25 -1.25Q68.5 7 65.25 21.25Q62 35.5 62 52V629Q62 645 65.75 658.5Q69.5 672 82.25 680.5Q95 689 123 689H337Q382.5 689 424.25 674.25Q466 659.5 499.0 630.0Q532 600.5 551.25 556.25Q570.5 512 570.5 452.5Q570.5 414 558.75 375.5Q547 337 523.25 304.25Q499.5 271.5 463.5 248.75Q427.5 226 378.5 219H183V51Q183 34.5 179.5 20.75Q176 7 163.25 -1.25Q150.5 -9.5 122 -9.5ZM547.5 6Q518.5 -14.5 500.25 -9.25Q482 -4 463.5 22.5L295.5 276.5L430.5 295L564 92.5Q577.5 72.5 580.75 58.5Q584 44.5 576.0 32.5Q568 20.5 547.5 6ZM183 338.5H352Q370 338.5 387.5 345.25Q405 352 418.75 366.25Q432.5 380.5 441.0 402.0Q449.5 423.5 449.5 453.5Q449.5 489.5 435.75 515.0Q422 540.5 396.5 554.0Q371 567.5 335 567.5H183Z" transform="translate(545.784 85.920) scale(0.02400 -0.02400)"/><path d="M685.5 75Q695.5 55.5 696.25 41.25Q697 27 687.75 16.25Q678.5 5.5 658 -5Q626 -20 608.25 -13.0Q590.5 -6 575.5 25.5L352.5 496.5L131 26Q115.5 -5 97.75 -11.75Q80 -18.5 48 -4Q27.5 5.5 18.25 16.75Q9 28 10.5 43.5Q12 59 22.5 80.5L297.5 653.5Q305.5 669.5 321.0 679.25Q336.5 689 353.5 689Q365.5 689 375.75 684.75Q386 680.5 394.5 672.5Q403 664.5 408.5 652.5ZM174.5 171.5 222.5 274.5H484L531.5 171.5Z" transform="translate(565.616 85.920) scale(0.02400 -0.02400)"/><path d="M574 689.5Q589 689.5 600.5 686.5Q612 683.5 619.0 672.25Q626 661 626 635.5Q626 611 618.75 599.5Q611.5 588 599.5 585.25Q587.5 582.5 572.5 582.5H388.5V49.5Q388.5 33 385.0 19.5Q381.5 6 369.0 -2.0Q356.5 -10 328 -10Q300.5 -10 287.75 -1.75Q275 6.5 272.0 20.25Q269 34 269 50.5V582.5H83Q68.5 582.5 56.5 585.5Q44.5 588.5 37.25 599.75Q30 611 30 636Q30 661 37.0 672.25Q44 683.5 56.25 686.5Q68.5 689.5 82.5 689.5Z" transform="translate(587.560 85.920) scale(0.02400 -0.02400)"/><path d="M123.5 -10Q95.5 -10 82.75 -1.75Q70 6.5 66.75 20.75Q63.5 35 63.5 51.5V628.5Q63.5 663 77.25 676.0Q91 689 126.5 689H516.5Q533.5 689 547.0 685.5Q560.5 682 568.5 669.25Q576.5 656.5 576.5 627.5Q576.5 599.5 568.25 586.75Q560 574 546.25 570.75Q532.5 567.5 515.5 567.5H184.5V399.5H412.5Q429.5 399.5 441.75 396.25Q454 393 461.0 381.75Q468 370.5 468 344.5Q468 320 461.0 308.5Q454 297 441.0 294.25Q428 291.5 410.5 291.5H184.5V111.5H516.5Q533.5 111.5 547.0 108.0Q560.5 104.5 568.5 91.75Q576.5 79 576.5 50.5Q576.5 22.5 568.25 9.75Q560 -3 546.25 -6.5Q532.5 -10 515.5 -10Z" transform="translate(608.304 85.920) scale(0.02400 -0.02400)"/><path d="M392 -14.5Q316.5 -14.5 253.75 12.25Q191 39 145.0 87.75Q99 136.5 74.0 203.25Q49 270 49 350.5Q49 426.5 74.75 489.75Q100.5 553 147.5 599.25Q194.5 645.5 259.0 671.5Q323.5 697.5 401 698Q432.5 698 466.5 692.25Q500.5 686.5 532.5 675.0Q564.5 663.5 589 647Q607.5 635 621.25 622.25Q635 609.5 635.5 593.5Q636.5 585 632.5 574.5Q628.5 564 621 553Q609.5 536 597.0 528.0Q584.5 520 572.5 520Q566 520 555.75 525.25Q545.5 530.5 528.5 541Q515.5 549.5 494.75 557.5Q474 565.5 448.75 570.75Q423.5 576 396.5 576Q329.5 576 278.5 547.75Q227.5 519.5 199.25 468.0Q171 416.5 170.5 347.5Q171 276.5 199.75 222.75Q228.5 169 279.25 138.5Q330 108 396 108Q419 108 442.25 111.0Q465.5 114 488.0 120.0Q510.5 126 529.5 135V292.5H388Q373.5 292.5 362.0 295.5Q350.5 298.5 344.0 309.75Q337.5 321 337.5 346Q337.5 371.5 344.5 382.75Q351.5 394 363.25 397.0Q375 400 389 400H592.5Q619 399.5 631.0 390.5Q643 381.5 647.0 368.0Q651 354.5 651 337.5V105Q651 85 631.5 63.75Q612 42.5 577 25Q553.5 13 524.0 4.25Q494.5 -4.5 461.25 -9.5Q428 -14.5 392 -14.5Z" transform="translate(628.112 85.920) scale(0.02400 -0.02400)"/><path d="M586 682Q614.5 662 617.5 644.0Q620.5 626 603.5 601.5L380.5 264.5V49.5Q380.5 33 377.0 19.25Q373.5 5.5 360.75 -2.75Q348 -11 319.5 -11Q291 -11 278.25 -2.75Q265.5 5.5 262.0 19.75Q258.5 34 258.5 51.5V265L34.5 600.5Q17 625.5 21.25 643.75Q25.5 662 53.5 681Q74 695 88.25 697.75Q102.5 700.5 114.5 692.75Q126.5 685 137.5 666.5L318 381.5L501 666.5Q513 685 524.5 692.5Q536 700 550.75 697.5Q565.5 695 586 682Z" transform="translate(650.200 85.920) scale(0.02400 -0.02400)"/><path d="M392 -14.5Q316.5 -14.5 253.75 12.25Q191 39 145.0 87.75Q99 136.5 74.0 203.25Q49 270 49 350.5Q49 426.5 74.75 489.75Q100.5 553 147.5 599.25Q194.5 645.5 259.0 671.5Q323.5 697.5 401 698Q432.5 698 466.5 692.25Q500.5 686.5 532.5 675.0Q564.5 663.5 589 647Q607.5 635 621.25 622.25Q635 609.5 635.5 593.5Q636.5 585 632.5 574.5Q628.5 564 621 553Q609.5 536 597.0 528.0Q584.5 520 572.5 520Q566 520 555.75 525.25Q545.5 530.5 528.5 541Q515.5 549.5 494.75 557.5Q474 565.5 448.75 570.75Q423.5 576 396.5 576Q329.5 576 278.5 547.75Q227.5 519.5 199.25 468.0Q171 416.5 170.5 347.5Q171 276.5 199.75 222.75Q228.5 169 279.25 138.5Q330 108 396 108Q419 108 442.25 111.0Q465.5 114 488.0 120.0Q510.5 126 529.5 135V292.5H388Q373.5 292.5 362.0 295.5Q350.5 298.5 344.0 309.75Q337.5 321 337.5 346Q337.5 371.5 344.5 382.75Q351.5 394 363.25 397.0Q375 400 389 400H592.5Q619 399.5 631.0 390.5Q643 381.5 647.0 368.0Q651 354.5 651 337.5V105Q651 85 631.5 63.75Q612 42.5 577 25Q553.5 13 524.0 4.25Q494.5 -4.5 461.25 -9.5Q428 -14.5 392 -14.5Z" transform="translate(681.464 85.920) scale(0.02400 -0.02400)"/><path d="M685.5 75Q695.5 55.5 696.25 41.25Q697 27 687.75 16.25Q678.5 5.5 658 -5Q626 -20 608.25 -13.0Q590.5 -6 575.5 25.5L352.5 496.5L131 26Q115.5 -5 97.75 -11.75Q80 -18.5 48 -4Q27.5 5.5 18.25 16.75Q9 28 10.5 43.5Q12 59 22.5 80.5L297.5 653.5Q305.5 669.5 321.0 679.25Q336.5 689 353.5 689Q365.5 689 375.75 684.75Q386 680.5 394.5 672.5Q403 664.5 408.5 652.5ZM174.5 171.5 222.5 274.5H484L531.5 171.5Z" transform="translate(703.552 85.920) scale(0.02400 -0.02400)"/><path d="M115 -9.5Q88.5 -9.5 75.75 -1.25Q63 7 59.25 21.0Q55.5 35 55.5 52V629Q55.5 645 59.25 658.25Q63 671.5 76.0 680.0Q89 688.5 117 688.5Q137.5 688.5 148.25 686.0Q159 683.5 165.0 679.0Q171 674.5 177 667.5L420.5 326.5H397.5L642.5 669Q649.5 677 656.5 681.0Q663.5 685 674.5 686.75Q685.5 688.5 703.5 688.5Q731 688.5 743.75 680.0Q756.5 671.5 760.25 657.5Q764 643.5 764 627V50Q764 34.5 760.25 20.75Q756.5 7 743.5 -1.25Q730.5 -9.5 702.5 -9.5Q675.5 -9.5 662.75 -1.0Q650 7.5 646.25 21.75Q642.5 36 642.5 52V481L461 218Q457.5 213.5 451.5 207.0Q445.5 200.5 435.5 195.75Q425.5 191 409 191Q392.5 191 382.75 195.75Q373 200.5 367.25 206.75Q361.5 213 356.5 219L176 480.5V50Q176 34.5 172.25 20.75Q168.5 7 155.75 -1.25Q143 -9.5 115 -9.5Z" transform="translate(725.496 85.920) scale(0.02400 -0.02400)"/><path d="M123.5 -10Q95.5 -10 82.75 -1.75Q70 6.5 66.75 20.75Q63.5 35 63.5 51.5V628.5Q63.5 663 77.25 676.0Q91 689 126.5 689H516.5Q533.5 689 547.0 685.5Q560.5 682 568.5 669.25Q576.5 656.5 576.5 627.5Q576.5 599.5 568.25 586.75Q560 574 546.25 570.75Q532.5 567.5 515.5 567.5H184.5V399.5H412.5Q429.5 399.5 441.75 396.25Q454 393 461.0 381.75Q468 370.5 468 344.5Q468 320 461.0 308.5Q454 297 441.0 294.25Q428 291.5 410.5 291.5H184.5V111.5H516.5Q533.5 111.5 547.0 108.0Q560.5 104.5 568.5 91.75Q576.5 79 576.5 50.5Q576.5 22.5 568.25 9.75Q560 -3 546.25 -6.5Q532.5 -10 515.5 -10Z" transform="translate(750.176 85.920) scale(0.02400 -0.02400)"/><path d="M123.5 -10Q95.5 -10 82.75 -1.75Q70 6.5 66.75 20.75Q63.5 35 63.5 51.5V628.5Q63.5 663 77.25 676.0Q91 689 126.5 689H516.5Q533.5 689 546.75 685.5Q560 682 567.75 669.25Q575.5 656.5 575.5 627.5Q575.5 599.5 567.25 586.75Q559 574 545.25 570.75Q531.5 567.5 514.5 567.5H184.5V399.5H411.5Q428.5 399.5 441.0 396.25Q453.5 393 460.25 381.5Q467 370 467 344Q467 319.5 460.0 308.25Q453 297 440.5 294.25Q428 291.5 410.5 291.5H184.5V50.5Q184.5 34 181.0 20.25Q177.5 6.5 164.75 -1.75Q152 -10 123.5 -10Z" transform="translate(780.936 85.920) scale(0.02400 -0.02400)"/><path d="M369 -18Q297.0897435897436 -18 234.2948717948718 9.25Q171.5 36.5 123.75 85.0Q76 133.5 49.0 197.19485294117646Q22 260.8897058823529 22 333.68382352941177Q22 408.5 48.270833333333336 474.0701754385965Q74.54166666666667 539.640350877193 121.02083333333334 589.0701754385965Q167.5 638.5 228.9272030651341 666.5Q290.3544061302682 694.5 360.411877394636 694.5Q432.5 694.5 495.3037037037037 667.3071428571429Q558.1074074074074 640.1142857142858 605.2101851851852 591.2678571428571Q652.312962962963 542.4214285714286 679.1564814814815 477.4607142857143Q706 412.5 706 337.55128205128204Q706 264.62820512820514 679.75 200.31410256410257Q653.5 136 606.8490566037735 86.6797385620915Q560.1981132075472 37.35947712418301 499.3490566037736 9.679738562091504Q438.5 -18 369 -18ZM363.5046511627907 103.5Q409.5 103.5 449.75 121.5Q490 139.5 520.25 171.5Q550.5 203.5 567.5 246.22687224669605Q584.5 288.9537444933921 584.5 338.1299559471366Q584.5 386.5 567.25 429.0Q550 471.5 519.5 504.0Q489 536.5 449.2803738317757 554.75Q409.5607476635514 573 364.2803738317757 573Q319 573 279.0 554.75Q239 536.5 208.5 504.25Q178 472 160.75 429.1765350877193Q143.5 386.3530701754386 143.5 337.5263157894737Q143.5 289.5 161.00833333333333 246.9005376344086Q178.51666666666665 204.30107526881721 208.75833333333333 172.1505376344086Q239 140 278.65116279069764 121.75Q318.30232558139534 103.5 363.5046511627907 103.5Z" transform="translate(800.936 85.920) scale(0.02400 -0.02400)"/><path d="M122 -9.5Q94 -9.5 81.25 -1.25Q68.5 7 65.25 21.25Q62 35.5 62 52V629Q62 645 65.75 658.5Q69.5 672 82.25 680.5Q95 689 123 689H337Q382.5 689 424.25 674.25Q466 659.5 499.0 630.0Q532 600.5 551.25 556.25Q570.5 512 570.5 452.5Q570.5 414 558.75 375.5Q547 337 523.25 304.25Q499.5 271.5 463.5 248.75Q427.5 226 378.5 219H183V51Q183 34.5 179.5 20.75Q176 7 163.25 -1.25Q150.5 -9.5 122 -9.5ZM547.5 6Q518.5 -14.5 500.25 -9.25Q482 -4 463.5 22.5L295.5 276.5L430.5 295L564 92.5Q577.5 72.5 580.75 58.5Q584 44.5 576.0 32.5Q568 20.5 547.5 6ZM183 338.5H352Q370 338.5 387.5 345.25Q405 352 418.75 366.25Q432.5 380.5 441.0 402.0Q449.5 423.5 449.5 453.5Q449.5 489.5 435.75 515.0Q422 540.5 396.5 554.0Q371 567.5 335 567.5H183Z" transform="translate(823.408 85.920) scale(0.02400 -0.02400)"/><path d="M115 -9.5Q88.5 -9.5 75.75 -1.25Q63 7 59.25 21.0Q55.5 35 55.5 52V629Q55.5 645 59.25 658.25Q63 671.5 76.0 680.0Q89 688.5 117 688.5Q137.5 688.5 148.25 686.0Q159 683.5 165.0 679.0Q171 674.5 177 667.5L420.5 326.5H397.5L642.5 669Q649.5 677 656.5 681.0Q663.5 685 674.5 686.75Q685.5 688.5 703.5 688.5Q731 688.5 743.75 680.0Q756.5 671.5 760.25 657.5Q764 643.5 764 627V50Q764 34.5 760.25 20.75Q756.5 7 743.5 -1.25Q730.5 -9.5 702.5 -9.5Q675.5 -9.5 662.75 -1.0Q650 7.5 646.25 21.75Q642.5 36 642.5 52V481L461 218Q457.5 213.5 451.5 207.0Q445.5 200.5 435.5 195.75Q425.5 191 409 191Q392.5 191 382.75 195.75Q373 200.5 367.25 206.75Q361.5 213 356.5 219L176 480.5V50Q176 34.5 172.25 20.75Q168.5 7 155.75 -1.25Q143 -9.5 115 -9.5Z" transform="translate(854.192 85.920) scale(0.02400 -0.02400)"/><path d="M369 -18Q297.0897435897436 -18 234.2948717948718 9.25Q171.5 36.5 123.75 85.0Q76 133.5 49.0 197.19485294117646Q22 260.8897058823529 22 333.68382352941177Q22 408.5 48.270833333333336 474.0701754385965Q74.54166666666667 539.640350877193 121.02083333333334 589.0701754385965Q167.5 638.5 228.9272030651341 666.5Q290.3544061302682 694.5 360.411877394636 694.5Q432.5 694.5 495.3037037037037 667.3071428571429Q558.1074074074074 640.1142857142858 605.2101851851852 591.2678571428571Q652.312962962963 542.4214285714286 679.1564814814815 477.4607142857143Q706 412.5 706 337.55128205128204Q706 264.62820512820514 679.75 200.31410256410257Q653.5 136 606.8490566037735 86.6797385620915Q560.1981132075472 37.35947712418301 499.3490566037736 9.679738562091504Q438.5 -18 369 -18ZM363.5046511627907 103.5Q409.5 103.5 449.75 121.5Q490 139.5 520.25 171.5Q550.5 203.5 567.5 246.22687224669605Q584.5 288.9537444933921 584.5 338.1299559471366Q584.5 386.5 567.25 429.0Q550 471.5 519.5 504.0Q489 536.5 449.2803738317757 554.75Q409.5607476635514 573 364.2803738317757 573Q319 573 279.0 554.75Q239 536.5 208.5 504.25Q178 472 160.75 429.1765350877193Q143.5 386.3530701754386 143.5 337.5263157894737Q143.5 289.5 161.00833333333333 246.9005376344086Q178.51666666666665 204.30107526881721 208.75833333333333 172.1505376344086Q239 140 278.65116279069764 121.75Q318.30232558139534 103.5 363.5046511627907 103.5Z" transform="translate(878.872 85.920) scale(0.02400 -0.02400)"/><path d="M106 -9.5Q79.5 -9.5 66.75 -0.5Q54 8.5 50.5 23.75Q47 39 47 57V625Q47 642.5 50.75 657.0Q54.5 671.5 67.25 680.5Q80 689.5 107 689.5H371Q429 689.5 473.25 662.75Q517.5 636 542.75 591.25Q568 546.5 567.5 493.5Q568 469.5 562.25 446.25Q556.5 423 545.0 402.75Q533.5 382.5 516.5 367Q540 349 556.75 322.75Q573.5 296.5 582.25 266.0Q591 235.5 591 203Q590 158 574.0 119.25Q558 80.5 529.25 51.75Q500.5 23 462.5 6.75Q424.5 -9.5 381 -9.5ZM168 109H371Q399.5 109 422.25 119.75Q445 130.5 458.0 153.75Q471 177 471 214Q471 242.5 463.5 260.25Q456 278 443.25 287.75Q430.5 297.5 415.25 301.5Q400 305.5 384.75 306.25Q369.5 307 356.5 307H311Q284.5 307 272.75 319.25Q261 331.5 261 360.5Q261 388 273.75 399.5Q286.5 411 313.5 411H358.5Q371.5 411 387.0 412.0Q402.5 413 416.5 419.25Q430.5 425.5 439.5 440.75Q448.5 456 448.5 484.5Q448.5 529.5 425.0 550.0Q401.5 570.5 345 570.5H168Z" transform="translate(901.344 85.920) scale(0.02400 -0.02400)"/><path d="M111.5 -10Q83.5 -10 70.75 -1.75Q58 6.5 54.75 20.75Q51.5 35 51.5 51.5V628.5Q51.5 645 55.0 658.75Q58.5 672.5 71.25 680.75Q84 689 112.5 689Q141 689 153.5 680.75Q166 672.5 169.25 658.75Q172.5 645 172.5 627.5V50.5Q172.5 34 169.0 20.25Q165.5 6.5 152.75 -1.75Q140 -10 111.5 -10Z" transform="translate(921.440 85.920) scale(0.02400 -0.02400)"/><path d="M121.5 -10Q93 -10 80.0 -1.75Q67 6.5 63.5 20.5Q60 34.5 60 51V628Q60 645 63.25 658.75Q66.5 672.5 79.25 680.75Q92 689 120.5 689Q149 689 161.5 680.75Q174 672.5 177.5 658.75Q181 645 181 628V98H485.5Q500.5 98 512.5 95.25Q524.5 92.5 531.75 81.0Q539 69.5 539 44.5Q539 20 531.75 8.25Q524.5 -3.5 512.75 -6.75Q501 -10 486 -10Z" transform="translate(931.816 85.920) scale(0.02400 -0.02400)"/><path d="M123.5 -10Q95.5 -10 82.75 -1.75Q70 6.5 66.75 20.75Q63.5 35 63.5 51.5V628.5Q63.5 663 77.25 676.0Q91 689 126.5 689H516.5Q533.5 689 547.0 685.5Q560.5 682 568.5 669.25Q576.5 656.5 576.5 627.5Q576.5 599.5 568.25 586.75Q560 574 546.25 570.75Q532.5 567.5 515.5 567.5H184.5V399.5H412.5Q429.5 399.5 441.75 396.25Q454 393 461.0 381.75Q468 370.5 468 344.5Q468 320 461.0 308.5Q454 297 441.0 294.25Q428 291.5 410.5 291.5H184.5V111.5H516.5Q533.5 111.5 547.0 108.0Q560.5 104.5 568.5 91.75Q576.5 79 576.5 50.5Q576.5 22.5 568.25 9.75Q560 -3 546.25 -6.5Q532.5 -10 515.5 -10Z" transform="translate(950.304 85.920) scale(0.02400 -0.02400)"/></g><g fill="#FFFFFF" ><path d="M603.4404296875 299.16015625V90.520263671875Q603.4404296875 62.64013671875 592.5604248046875 48.2401123046875Q581.680419921875 33.840087890625 558.400390625 20.800048828125Q531.120361328125 5.52001953125 479.9002685546875 -5.6400146484375Q428.68017578125 -16.800048828125 377.60009765625 -16.800048828125Q282.320068359375 -16.800048828125 205.5 16.43994140625Q128.679931640625 49.679931640625 84.119873046875 120.43994140625Q39.559814453125 191.199951171875 39.559814453125 302.239990234375Q39.559814453125 407.719970703125 84.85986328125 479.3599853515625Q130.159912109375 551 206.3800048828125 587.52001953125Q282.60009765625 624.0400390625 376.000244140625 624.0400390625Q437.560302734375 624.0400390625 483.2203369140625 610.9000244140625Q528.88037109375 597.760009765625 553.640380859375 574.8199462890625Q578.400390625 551.8798828125 578.400390625 522.23974609375Q578.400390625 500.11962890625 566.600341796875 482.779541015625Q554.80029296875 465.439453125 539.240234375 455.87939453125Q513.76025390625 471.599365234375 476.000244140625 485.9593505859375Q438.240234375 500.3193359375 387.080322265625 500.3193359375Q331.680419921875 500.3193359375 288.280517578125 476.4993896484375Q244.880615234375 452.679443359375 220.70068359375 408.57958984375Q196.520751953125 364.479736328125 196.520751953125 303Q196.520751953125 236.76025390625 220.1806640625 192.900390625Q243.840576171875 149.04052734375 285.4404296875 127.6005859375Q327.040283203125 106.16064453125 380.1201171875 106.16064453125Q405.47998046875 106.16064453125 425.6998291015625 111.0206298828125Q445.919677734375 115.880615234375 457.07958984375 121.08056640625V238.19970703125H339.52001953125Q334.239990234375 247.759765625 329.3399658203125 263.4798583984375Q324.43994140625 279.199951171875 324.43994140625 296.800048828125Q324.43994140625 328.240234375 338.9000244140625 342.6802978515625Q353.360107421875 357.120361328125 376.72021484375 357.120361328125H545.240234375Q572.3603515625 357.120361328125 587.900390625 341.8203125Q603.4404296875 326.520263671875 603.4404296875 299.16015625Z" transform="translate(160.000 200.000) scale(0.12400 -0.12400)"/><path d="M542.760498046875 240.1201171875Q542.760498046875 161.56005859375 511.47939861818554 104.34708898207721Q480.19829918949614 47.13411937040441 423.2220109443832 15.927045036764707Q366.24572269927035 -15.280029296875 289.16015625 -15.280029296875Q212.53796528660973 -15.280029296875 155.34893869799237 15.47998046875Q98.159912109375 46.239990234375 66.7398681640625 103.52001953125Q35.31982421875 160.800048828125 35.31982421875 240.1201171875Q35.31982421875 318.5277696692425 67.2398681640625 375.50399713930875Q99.159912109375 432.480224609375 156.3599853515625 463.6202392578125Q213.56005859375 494.76025390625 289.443549721928 494.76025390625Q365.32704085010596 494.76025390625 422.2396591962394 463.27621116863907Q479.1522775423729 431.79216843102813 510.95638779462394 374.59615745770157Q542.760498046875 317.400146484375 542.760498046875 240.1201171875ZM288.98449361549234 377.839599609375Q241.92041015625 377.839599609375 214.58056640625 341.73974609375Q187.24072265625 305.639892578125 187.24072265625 240.1201171875Q187.24072265625 172.84033203125 214.11673767925942 137.240478515625Q240.99275270226883 101.640625 289.16015625 101.640625Q337.39990234375 101.640625 364.1197509765625 137.740478515625Q390.839599609375 173.84033203125 390.839599609375 240.1201171875Q390.839599609375 304.8798828125 363.79531284548204 341.3597412109375Q336.75102608158903 377.839599609375 288.98449361549234 377.839599609375Z" transform="translate(241.592 200.000) scale(0.12400 -0.12400)"/><path d="M63.23974609375 264 211.640625 261.1201171875V1.239990234375Q202.08056640625 -1.52001953125 184.1004638671875 -4.4000244140625Q166.120361328125 -7.280029296875 145.000244140625 -7.280029296875Q102.719970703125 -7.280029296875 82.9798583984375 7.6800537109375Q63.23974609375 22.64013671875 63.23974609375 62.160400390625ZM211.640625 184.359619140625 63.23974609375 186.99951171875V651.0400390625Q72.7998046875 653.800048828125 90.89990234375 656.6800537109375Q109 659.56005859375 129.880126953125 659.56005859375Q173.160400390625 659.56005859375 192.4005126953125 644.97998046875Q211.640625 630.39990234375 211.640625 590.11962890625Z" transform="translate(313.264 200.000) scale(0.12400 -0.12400)"/><path d="M178.48046875 330.719482421875V445.1201171875H373.000244140625Q378.2802734375 436.56005859375 383.1802978515625 421.5999755859375Q388.080322265625 406.639892578125 388.080322265625 388.7998046875Q388.080322265625 358.359619140625 374.3802490234375 344.53955078125Q360.68017578125 330.719482421875 337.320068359375 330.719482421875ZM200.840576171875 484.559814453125V348.5595703125H59.519775390625V490.079833984375Q59.519775390625 555.919921875 87.4798583984375 596.97998046875Q115.43994140625 638.0400390625 163.5400390625 657.4400634765625Q211.64013671875 676.840087890625 271.440185546875 676.840087890625Q341.3603515625 676.840087890625 375.7603759765625 658.4200439453125Q410.160400390625 640 410.160400390625 598.999755859375Q410.160400390625 581.15966796875 402.620361328125 566.839599609375Q395.080322265625 552.51953125 385.560302734375 544.51953125Q366.80029296875 550.719482421875 344.7403564453125 554.939453125Q322.680419921875 559.159423828125 296.160400390625 559.159423828125Q248.840576171875 559.159423828125 224.840576171875 542.1395263671875Q200.840576171875 525.11962890625 200.840576171875 484.559814453125ZM59.519775390625 378.119384765625H207.920654296875V1.239990234375Q198.360595703125 -1.52001953125 180.3804931640625 -4.4000244140625Q162.400390625 -7.280029296875 141.2802734375 -7.280029296875Q99 -7.280029296875 79.2598876953125 7.6800537109375Q59.519775390625 22.64013671875 59.519775390625 62.160400390625Z" transform="translate(347.364 200.000) scale(0.12400 -0.12400)"/><path d="M126.80029296875 170.119873046875 121.2802734375 270.3603515625 369.319580078125 309.080322265625Q366.839599609375 337.47998046875 344.999755859375 361.1998291015625Q323.159912109375 384.919677734375 279.880126953125 384.919677734375Q234.600341796875 384.919677734375 204.740478515625 354.4798583984375Q174.880615234375 324.0400390625 173.360595703125 267.640380859375L177.920654296875 198.519775390625Q187.20068359375 144.360107421875 225.1005859375 120.7203369140625Q263.00048828125 97.08056640625 315.400146484375 97.08056640625Q357.400146484375 97.08056640625 394.440185546875 108.800537109375Q431.480224609375 120.5205078125 453.76025390625 134.240478515625Q468.560302734375 124.96044921875 478.4803466796875 109.0003662109375Q488.400390625 93.040283203125 488.400390625 74.960205078125Q488.400390625 45.320068359375 464.620361328125 25.02001953125Q440.84033203125 4.719970703125 399.6402587890625 -5.280029296875Q358.440185546875 -15.280029296875 305.320068359375 -15.280029296875Q227.56005859375 -15.280029296875 166.5 13.8599853515625Q105.43994140625 43 70.3798828125 101.1600341796875Q35.31982421875 159.320068359375 35.31982421875 246.16015625Q35.31982421875 310.000244140625 55.619873046875 357.1602783203125Q75.919921875 404.3203125 110.3599853515625 434.560302734375Q144.800048828125 464.80029296875 188.4600830078125 479.7802734375Q232.1201171875 494.76025390625 279.360107421875 494.76025390625Q347.960205078125 494.76025390625 399.4002685546875 467.6202392578125Q450.84033203125 440.480224609375 480.0003662109375 393.22021484375Q509.160400390625 345.960205078125 509.160400390625 284.440185546875Q509.160400390625 253.320068359375 492.3203125 237.3599853515625Q475.480224609375 221.39990234375 445.320068359375 217.119873046875Z" transform="translate(399.816 200.000) scale(0.12400 -0.12400)"/><path d="M205.920654296875 350.919677734375V226.360107421875H57.519775390625V369.239990234375Q57.519775390625 396.800048828125 71.33984375 416.380126953125Q85.159912109375 435.960205078125 108.9599609375 451.240234375Q141.800048828125 471.2802734375 188.320068359375 482.6402587890625Q234.840087890625 494.000244140625 286.0400390625 494.000244140625Q388.080322265625 494.000244140625 388.080322265625 425.8798828125Q388.080322265625 409.7998046875 383.560302734375 395.979736328125Q379.040283203125 382.15966796875 372.520263671875 372.359619140625Q362.520263671875 374.359619140625 348.040283203125 375.599609375Q333.560302734375 376.839599609375 316.80029296875 376.839599609375Q286.760498046875 376.839599609375 257.08056640625 369.9996337890625Q227.400634765625 363.15966796875 205.920654296875 350.919677734375ZM57.519775390625 264 205.920654296875 261.1201171875V1.239990234375Q196.360595703125 -1.52001953125 178.3804931640625 -4.4000244140625Q160.400390625 -7.280029296875 139.2802734375 -7.280029296875Q97 -7.280029296875 77.2598876953125 7.6800537109375Q57.519775390625 22.64013671875 57.519775390625 62.160400390625Z" transform="translate(467.024 200.000) scale(0.12400 -0.12400)"/><path d="M152.400634765625 390.6396484375Q143.12060546875 385.599609375 128.54052734375 382.07958984375Q113.96044921875 378.5595703125 96.600341796875 378.5595703125Q72.480224609375 378.5595703125 56.0001220703125 389.099609375Q39.52001953125 399.6396484375 37.760009765625 421.999755859375L26.43994140625 608.919921875Q39 618.47998046875 58.0001220703125 625.5400390625Q77.000244140625 632.60009765625 100.640380859375 632.60009765625Q134.08056640625 632.60009765625 152.70068359375 618.9200439453125Q171.32080078125 605.239990234375 171.32080078125 574.35986328125Q171.32080078125 556.599853515625 168.4207763671875 522.6798095703125Q165.520751953125 488.759765625 161.480712890625 452.8397216796875Q157.440673828125 416.919677734375 152.400634765625 390.6396484375Z" transform="translate(517.120 200.000) scale(0.12400 -0.12400)"/><path d="M447.360595703125 139.72021484375Q447.360595703125 66.60009765625 392.3804931640625 25.280029296875Q337.400390625 -16.0400390625 232.440185546875 -16.0400390625Q149.60009765625 -16.0400390625 96.6600341796875 8.219970703125Q43.719970703125 32.47998046875 43.719970703125 78.72021484375Q43.719970703125 99.84033203125 52.8800048828125 115.5203857421875Q62.0400390625 131.200439453125 75.800048828125 140.48046875Q104.320068359375 123.760498046875 141.4600830078125 110.4205322265625Q178.60009765625 97.08056640625 226.880126953125 97.08056640625Q300.479736328125 97.08056640625 300.479736328125 138.960205078125Q300.479736328125 156.56005859375 287.1597900390625 167.0799560546875Q273.83984375 177.599853515625 244.39990234375 183.31982421875L201.680419921875 193.15966796875Q121.68017578125 209.6796875 82.280029296875 245.3597412109375Q42.8798828125 281.039794921875 42.8798828125 343.239990234375Q42.8798828125 412.960205078125 99.56005859375 454.240234375Q156.240234375 495.520263671875 251.84033203125 495.520263671875Q300.3603515625 495.520263671875 339.5404052734375 486.020263671875Q378.720458984375 476.520263671875 401.6405029296875 457.22021484375Q424.560546875 437.920166015625 424.560546875 409.280029296875Q424.560546875 389.43994140625 416.54052734375 374.119873046875Q408.5205078125 358.7998046875 396.00048828125 349.23974609375Q384.760498046875 356.479736328125 362.46044921875 364.0797119140625Q340.160400390625 371.6796875 313.640380859375 377.0396728515625Q287.120361328125 382.399658203125 263.96044921875 382.399658203125Q228.320556640625 382.399658203125 208.16064453125 372.6197509765625Q188.000732421875 362.83984375 188.000732421875 343.239990234375Q188.000732421875 329.60009765625 199.3206787109375 320.3201904296875Q210.640625 311.040283203125 240.08056640625 304.560302734375L280.2001953125 295.160400390625Q369.48046875 274.600341796875 408.4205322265625 237.060302734375Q447.360595703125 199.520263671875 447.360595703125 139.72021484375Z" transform="translate(541.920 200.000) scale(0.12400 -0.12400)"/><path d="M222.440673828125 315.400390625H282.2001953125Q332.559814453125 315.400390625 362.4996337890625 339.020263671875Q392.439453125 362.64013671875 392.439453125 407.83984375Q392.439453125 453.03955078125 364.379638671875 476.179443359375Q336.31982421875 499.3193359375 283.16015625 499.3193359375Q264.520263671875 499.3193359375 250.180419921875 498.33935546875Q235.840576171875 497.359375 222.440673828125 494.87939453125ZM291.76025390625 194.959716796875H70.759765625V552.599853515625Q70.759765625 572.39990234375 81.9197998046875 583.179931640625Q93.079833984375 593.9599609375 111.35986328125 600.47998046875Q144.159912109375 611.760009765625 189.8399658203125 616.9000244140625Q235.52001953125 622.0400390625 273 622.0400390625Q407.60009765625 622.0400390625 477.500244140625 564.3599853515625Q547.400390625 506.679931640625 547.400390625 408.079833984375Q547.400390625 343.7998046875 516.7203369140625 295.8997802734375Q486.040283203125 247.999755859375 429.000244140625 221.479736328125Q371.960205078125 194.959716796875 291.76025390625 194.959716796875ZM70.759765625 262.080078125H223.440673828125V1.239990234375Q213.640625 -1.52001953125 193.760498046875 -4.4000244140625Q173.88037109375 -7.280029296875 152.76025390625 -7.280029296875Q107.9599609375 -7.280029296875 89.35986328125 8.9400634765625Q70.759765625 25.16015625 70.759765625 64.680419921875Z" transform="translate(626.364 200.000) scale(0.12400 -0.12400)"/><path d="M255.2001953125 94.560546875Q278.199951171875 94.560546875 300.3798828125 99.260498046875Q322.559814453125 103.96044921875 333.039794921875 110.4404296875V206.039794921875L248.560302734375 198.35986328125Q214.800537109375 195.8798828125 195.12060546875 183.719970703125Q175.440673828125 171.56005859375 175.440673828125 147.72021484375Q175.440673828125 123.640380859375 194.300537109375 109.1004638671875Q213.160400390625 94.560546875 255.2001953125 94.560546875ZM248.880126953125 494.76025390625Q352.600341796875 494.76025390625 414.6204833984375 451.5802001953125Q476.640625 408.400146484375 476.640625 316.800048828125V89.68017578125Q476.640625 64.64013671875 463.58056640625 49.340087890625Q450.5205078125 34.0400390625 431.240478515625 22.52001953125Q401.160400390625 4.9599609375 356.600341796875 -5.280029296875Q312.040283203125 -15.52001953125 255.2001953125 -15.52001953125Q152.840087890625 -15.52001953125 92.219970703125 24.1400146484375Q31.599853515625 63.800048828125 31.599853515625 142.920166015625Q31.599853515625 210.960205078125 73.579833984375 247.3602294921875Q115.559814453125 283.76025390625 198.639892578125 292.2802734375L332.27978515625 306.2802734375V318.320068359375Q332.27978515625 352.35986328125 305.6998291015625 367.3797607421875Q279.119873046875 382.399658203125 230.39990234375 382.399658203125Q192.43994140625 382.399658203125 155.699951171875 373.439697265625Q118.9599609375 364.479736328125 89.9599609375 351.759765625Q78.159912109375 360.27978515625 69.7598876953125 376.619873046875Q61.35986328125 392.9599609375 61.35986328125 410.56005859375Q61.35986328125 453.2802734375 107.080078125 471.84033203125Q135.60009765625 483.560302734375 174.14013671875 489.1602783203125Q212.68017578125 494.76025390625 248.880126953125 494.76025390625Z" transform="translate(698.036 200.000) scale(0.12400 -0.12400)"/><path d="M52.7998046875 617.880126953125Q52.7998046875 651.80029296875 76.159912109375 675.0404052734375Q99.52001953125 698.280517578125 135.960205078125 698.280517578125Q172.640380859375 698.280517578125 195.760498046875 675.0404052734375Q218.880615234375 651.80029296875 218.880615234375 617.880126953125Q218.880615234375 584.719970703125 195.760498046875 561.099853515625Q172.640380859375 537.479736328125 135.960205078125 537.479736328125Q99.52001953125 537.479736328125 76.159912109375 561.099853515625Q52.7998046875 584.719970703125 52.7998046875 617.880126953125ZM61.759765625 264H210.16064453125V1.239990234375Q200.6005859375 -1.52001953125 182.6204833984375 -4.4000244140625Q164.640380859375 -7.280029296875 143.520263671875 -7.280029296875Q101.239990234375 -7.280029296875 81.4998779296875 7.6800537109375Q61.759765625 22.64013671875 61.759765625 62.160400390625ZM210.16064453125 186.99951171875H61.759765625V474.440185546875Q71.31982421875 477.2001953125 89.419921875 480.0802001953125Q107.52001953125 482.960205078125 128.64013671875 482.960205078125Q171.680419921875 482.960205078125 190.9205322265625 468.380126953125Q210.16064453125 453.800048828125 210.16064453125 413.27978515625Z" transform="translate(764.128 200.000) scale(0.12400 -0.12400)"/><path d="M205.920654296875 350.919677734375V226.360107421875H57.519775390625V369.239990234375Q57.519775390625 396.800048828125 71.33984375 416.380126953125Q85.159912109375 435.960205078125 108.9599609375 451.240234375Q141.800048828125 471.2802734375 188.320068359375 482.6402587890625Q234.840087890625 494.000244140625 286.0400390625 494.000244140625Q388.080322265625 494.000244140625 388.080322265625 425.8798828125Q388.080322265625 409.7998046875 383.560302734375 395.979736328125Q379.040283203125 382.15966796875 372.520263671875 372.359619140625Q362.520263671875 374.359619140625 348.040283203125 375.599609375Q333.560302734375 376.839599609375 316.80029296875 376.839599609375Q286.760498046875 376.839599609375 257.08056640625 369.9996337890625Q227.400634765625 363.15966796875 205.920654296875 350.919677734375ZM57.519775390625 264 205.920654296875 261.1201171875V1.239990234375Q196.360595703125 -1.52001953125 178.3804931640625 -4.4000244140625Q160.400390625 -7.280029296875 139.2802734375 -7.280029296875Q97 -7.280029296875 77.2598876953125 7.6800537109375Q57.519775390625 22.64013671875 57.519775390625 62.160400390625Z" transform="translate(797.856 200.000) scale(0.12400 -0.12400)"/><path d="M271.879638671875 196.07958984375H51.8798828125Q45.83984375 206.11962890625 40.7998046875 221.5997314453125Q35.759765625 237.079833984375 35.759765625 254.679931640625Q35.759765625 286.880126953125 50.9598388671875 301.460205078125Q66.159912109375 316.040283203125 90.52001953125 316.040283203125H310.519775390625Q315.559814453125 307.000244140625 321.099853515625 291.0201416015625Q326.639892578125 275.0400390625 326.639892578125 257.679931640625Q326.639892578125 225.7197265625 311.559814453125 210.899658203125Q296.479736328125 196.07958984375 271.879638671875 196.07958984375Z" transform="translate(847.952 200.000) scale(0.12400 -0.12400)"/></g><g transform="rotate(0 955.6800000000001 157.2944)"><rect x="904.84" y="106.4544" width="101.67999999999999" height="101.67999999999999" rx="18.30" fill="#EE6FA5"/></g><g fill="#FFFFFF" ><path d="M320 459H314Q305 431 294.0 398.0Q283 365 271.0 328.5Q259 292 248 253L226 140Q220 120 215.5 101.0Q211 82 206.5 65.0Q202 48 198.0 32.0Q194 16 190 1Q177 -3 161.0 -7.0Q145 -11 123 -11Q73 -11 48.0 6.5Q23 24 23 55Q23 69 27.0 83.0Q31 97 36 116Q44 148 60.0 198.5Q76 249 95.5 307.5Q115 366 134.5 422.0Q154 478 170.0 522.5Q186 567 194 588Q211 598 246.0 607.0Q281 616 315 616Q365 616 404.0 601.5Q443 587 453 555Q471 504 491.5 435.5Q512 367 533.5 292.5Q555 218 575.0 147.5Q595 77 610 21Q598 8 574.0 -1.0Q550 -10 517 -10Q468 -10 449.0 6.5Q430 23 421 57L396 153L376 256Q366 295 356.0 331.0Q346 367 337.0 399.5Q328 432 320 459ZM151 126 220 261H440L461 126Z" transform="translate(930.816 181.698) scale(0.07931 -0.07931)"/></g><g fill="#FFFFFF" ><path d="M271.879638671875 196.07958984375H51.8798828125Q45.83984375 206.11962890625 40.7998046875 221.5997314453125Q35.759765625 237.079833984375 35.759765625 254.679931640625Q35.759765625 286.880126953125 50.9598388671875 301.460205078125Q66.159912109375 316.040283203125 90.52001953125 316.040283203125H310.519775390625Q315.559814453125 307.000244140625 321.099853515625 291.0201416015625Q326.639892578125 275.0400390625 326.639892578125 257.679931640625Q326.639892578125 225.7197265625 311.559814453125 210.899658203125Q296.479736328125 196.07958984375 271.879638671875 196.07958984375Z" transform="translate(1018.520 200.000) scale(0.12400 -0.12400)"/><path d="M466.359375 303.39990234375Q466.359375 206.520263671875 418.8995361328125 157.6004638671875Q371.439697265625 108.6806640625 291.68017578125 108.6806640625Q274.84033203125 108.6806640625 255.700439453125 110.3006591796875Q236.560546875 111.920654296875 222.440673828125 114.880615234375V493.599365234375Q238.640625 496.079345703125 255.4205322265625 497.3193359375Q272.200439453125 498.559326171875 290.2802734375 498.559326171875Q342.320068359375 498.559326171875 381.85986328125 477.099365234375Q421.399658203125 455.639404296875 443.8795166015625 412.6395263671875Q466.359375 369.6396484375 466.359375 303.39990234375ZM623.080322265625 305.679931640625Q623.080322265625 413.239990234375 580.060302734375 483.1400146484375Q537.040283203125 553.0400390625 460.500244140625 587.5400390625Q383.960205078125 622.0400390625 281.400146484375 622.0400390625Q243.16015625 622.0400390625 197.320068359375 617.9000244140625Q151.47998046875 613.760009765625 111.35986328125 600.719970703125Q93.079833984375 594.199951171875 81.9197998046875 583.419921875Q70.759765625 572.639892578125 70.759765625 552.83984375V74.560302734375Q70.759765625 27.1201171875 122.639892578125 8.0400390625Q161.679931640625 -6 209.780029296875 -10.4000244140625Q257.880126953125 -14.800048828125 291.16015625 -14.800048828125Q391.2001953125 -14.800048828125 465.740234375 20.5799560546875Q540.2802734375 55.9599609375 581.6802978515625 127.0799560546875Q623.080322265625 198.199951171875 623.080322265625 305.679931640625Z" transform="translate(1063.408 200.000) scale(0.12400 -0.12400)"/><path d="M52.7998046875 617.880126953125Q52.7998046875 651.80029296875 76.159912109375 675.0404052734375Q99.52001953125 698.280517578125 135.960205078125 698.280517578125Q172.640380859375 698.280517578125 195.760498046875 675.0404052734375Q218.880615234375 651.80029296875 218.880615234375 617.880126953125Q218.880615234375 584.719970703125 195.760498046875 561.099853515625Q172.640380859375 537.479736328125 135.960205078125 537.479736328125Q99.52001953125 537.479736328125 76.159912109375 561.099853515625Q52.7998046875 584.719970703125 52.7998046875 617.880126953125ZM61.759765625 264H210.16064453125V1.239990234375Q200.6005859375 -1.52001953125 182.6204833984375 -4.4000244140625Q164.640380859375 -7.280029296875 143.520263671875 -7.280029296875Q101.239990234375 -7.280029296875 81.4998779296875 7.6800537109375Q61.759765625 22.64013671875 61.759765625 62.160400390625ZM210.16064453125 186.99951171875H61.759765625V474.440185546875Q71.31982421875 477.2001953125 89.419921875 480.0802001953125Q107.52001953125 482.960205078125 128.64013671875 482.960205078125Q171.680419921875 482.960205078125 190.9205322265625 468.380126953125Q210.16064453125 453.800048828125 210.16064453125 413.27978515625Z" transform="translate(1145.620 200.000) scale(0.12400 -0.12400)"/><path d="M317.120361328125 376.839599609375Q262.800537109375 376.839599609375 224.2606201171875 341.479736328125Q185.720703125 306.119873046875 185.720703125 238.360107421875Q185.720703125 170.84033203125 222.7606201171875 137.00048828125Q259.800537109375 103.16064453125 316.3603515625 103.16064453125Q349.240234375 103.16064453125 373.8201904296875 111.62060546875Q398.400146484375 120.08056640625 415.840087890625 129.760498046875Q432.920166015625 117.680419921875 441.8201904296875 103.3603515625Q450.72021484375 89.040283203125 450.72021484375 68.440185546875Q450.72021484375 31.320068359375 410.740234375 8.4000244140625Q370.76025390625 -14.52001953125 300.400146484375 -14.52001953125Q220.760009765625 -14.52001953125 160.93994140625 13.8800048828125Q101.119873046875 42.280029296875 68.2198486328125 98.9400634765625Q35.31982421875 155.60009765625 35.31982421875 238.360107421875Q35.31982421875 324.68017578125 71.119873046875 381.460205078125Q106.919921875 438.240234375 166.3599853515625 466.500244140625Q225.800048828125 494.76025390625 296.1201171875 494.76025390625Q364.960205078125 494.76025390625 404.7001953125 469.960205078125Q444.440185546875 445.16015625 444.440185546875 407.52001953125Q444.440185546875 390.199951171875 435.920166015625 375.4998779296875Q427.400146484375 360.7998046875 415.64013671875 350.479736328125Q397.440185546875 360.15966796875 372.8402099609375 368.4996337890625Q348.240234375 376.839599609375 317.120361328125 376.839599609375Z" transform="translate(1179.348 200.000) scale(0.12400 -0.12400)"/><path d="M126.80029296875 170.119873046875 121.2802734375 270.3603515625 369.319580078125 309.080322265625Q366.839599609375 337.47998046875 344.999755859375 361.1998291015625Q323.159912109375 384.919677734375 279.880126953125 384.919677734375Q234.600341796875 384.919677734375 204.740478515625 354.4798583984375Q174.880615234375 324.0400390625 173.360595703125 267.640380859375L177.920654296875 198.519775390625Q187.20068359375 144.360107421875 225.1005859375 120.7203369140625Q263.00048828125 97.08056640625 315.400146484375 97.08056640625Q357.400146484375 97.08056640625 394.440185546875 108.800537109375Q431.480224609375 120.5205078125 453.76025390625 134.240478515625Q468.560302734375 124.96044921875 478.4803466796875 109.0003662109375Q488.400390625 93.040283203125 488.400390625 74.960205078125Q488.400390625 45.320068359375 464.620361328125 25.02001953125Q440.84033203125 4.719970703125 399.6402587890625 -5.280029296875Q358.440185546875 -15.280029296875 305.320068359375 -15.280029296875Q227.56005859375 -15.280029296875 166.5 13.8599853515625Q105.43994140625 43 70.3798828125 101.1600341796875Q35.31982421875 159.320068359375 35.31982421875 246.16015625Q35.31982421875 310.000244140625 55.619873046875 357.1602783203125Q75.919921875 404.3203125 110.3599853515625 434.560302734375Q144.800048828125 464.80029296875 188.4600830078125 479.7802734375Q232.1201171875 494.76025390625 279.360107421875 494.76025390625Q347.960205078125 494.76025390625 399.4002685546875 467.6202392578125Q450.84033203125 440.480224609375 480.0003662109375 393.22021484375Q509.160400390625 345.960205078125 509.160400390625 284.440185546875Q509.160400390625 253.320068359375 492.3203125 237.3599853515625Q475.480224609375 221.39990234375 445.320068359375 217.119873046875Z" transform="translate(1239.612 200.000) scale(0.12400 -0.12400)"/></g><path d="M 72 240 Q 733 264 1395 240" stroke="#EE6FA5" stroke-width="10" fill="none" stroke-linecap="round"/><g transform="rotate(0 1394.82 144)"><line x1="1394.82" y1="144.00" x2="1394.82" y2="242.86" stroke="#FFFFFF" stroke-width="3.0" stroke-linecap="round"/><path d="M 1394.82 144.00 L 1355.82 172.86 Q 1362.32 181.44 1368.82 175.20 Z" fill="#EE6FA5"/><path d="M 1394.82 144.00 L 1368.82 175.20 Q 1375.32 183.15 1381.82 176.91 Z" fill="#D24E86"/><path d="M 1394.82 144.00 L 1381.82 176.91 Q 1388.32 183.78 1394.82 177.54 Z" fill="#EE6FA5"/><path d="M 1394.82 144.00 L 1394.82 177.54 Q 1401.32 183.78 1407.82 176.91 Z" fill="#D24E86"/><path d="M 1394.82 144.00 L 1407.82 176.91 Q 1414.32 183.15 1420.82 175.20 Z" fill="#EE6FA5"/><path d="M 1394.82 144.00 L 1420.82 175.20 Q 1427.32 181.44 1433.82 172.86 Z" fill="#D24E86"/><circle cx="1394.82" cy="144.00" r="2.3" fill="#FFFFFF"/></g></svg>