<svg xmlns="http://www.w3.org/2000/svg" viewBox="0 0 600 600" width="600" height="600"><rect width="600" height="600" fill="#F7F0DF"/><circle cx="300" cy="300" r="268" fill="#0F3B2E"/><circle cx="300" cy="300" r="268" fill="none" stroke="#E8C24B" stroke-width="5.4"/><circle cx="300" cy="300" r="249.2" fill="none" stroke="#E8C24B" stroke-width="1.9"/><g fill="#F7F0DF"><g transform="translate(186.20 134.11) rotate(325.55)"><path d="M603.4404296875 299.16015625V90.520263671875Q603.4404296875 62.64013671875 592.5604248046875 48.2401123046875Q581.680419921875 33.840087890625 558.400390625 20.800048828125Q531.120361328125 5.52001953125 479.9002685546875 -5.6400146484375Q428.68017578125 -16.800048828125 377.60009765625 -16.800048828125Q282.320068359375 -16.800048828125 205.5 16.43994140625Q128.679931640625 49.679931640625 84.119873046875 120.43994140625Q39.559814453125 191.199951171875 39.559814453125 302.239990234375Q39.559814453125 407.719970703125 84.85986328125 479.3599853515625Q130.159912109375 551 206.3800048828125 587.52001953125Q282.60009765625 624.0400390625 376.000244140625 624.0400390625Q437.560302734375 624.0400390625 483.2203369140625 610.9000244140625Q528.88037109375 597.760009765625 553.640380859375 574.8199462890625Q578.400390625 551.8798828125 578.400390625 522.23974609375Q578.400390625 500.11962890625 566.600341796875 482.779541015625Q554.80029296875 465.439453125 539.240234375 455.87939453125Q513.76025390625 471.599365234375 476.000244140625 485.9593505859375Q438.240234375 500.3193359375 387.080322265625 500.3193359375Q331.680419921875 500.3193359375 288.280517578125 476.4993896484375Q244.880615234375 452.679443359375 220.70068359375 408.57958984375Q196.520751953125 364.479736328125 196.520751953125 303Q196.520751953125 236.76025390625 220.1806640625 192.900390625Q243.840576171875 149.04052734375 285.4404296875 127.6005859375Q327.040283203125 106.16064453125 380.1201171875 106.16064453125Q405.47998046875 106.16064453125 425.6998291015625 111.0206298828125Q445.919677734375 115.880615234375 457.07958984375 121.08056640625V238.19970703125H339.52001953125Q334.239990234375 247.759765625 329.3399658203125 263.4798583984375Q324.43994140625 279.199951171875 324.43994140625 296.800048828125Q324.43994140625 328.240234375 338.9000244140625 342.6802978515625Q353.360107421875 357.120361328125 376.72021484375 357.120361328125H545.240234375Q572.3603515625 357.120361328125 587.900390625 341.8203125Q603.4404296875 326.520263671875 603.4404296875 299.16015625Z" transform="translate(-16.75 0) scale(0.05092 -0.05092)"/></g><g transform="translate(219.08 115.83) rotate(336.28)"><path d="M659.84033203125 304Q659.84033203125 200 619.1802978515625 128.3599853515625Q578.520263671875 56.719970703125 508.460205078125 19.9599609375Q438.400146484375 -16.800048828125 349.320068359375 -16.800048828125Q260.47998046875 -16.800048828125 190.2999267578125 19.9599609375Q120.119873046875 56.719970703125 79.83984375 128.3599853515625Q39.559814453125 200 39.559814453125 304Q39.559814453125 408 80.83984375 479.260009765625Q122.119873046875 550.52001953125 192.179931640625 587.280029296875Q262.239990234375 624.0400390625 349.320068359375 624.0400390625Q436.64013671875 624.0400390625 507.0802001953125 587.280029296875Q577.520263671875 550.52001953125 618.6802978515625 479.260009765625Q659.84033203125 408 659.84033203125 304ZM503.119384765625 304Q503.119384765625 400.19970703125 461.4395751953125 450.259521484375Q419.759765625 500.3193359375 349.320068359375 500.3193359375Q280.640380859375 500.3193359375 238.58056640625 450.6395263671875Q196.520751953125 400.959716796875 196.520751953125 304Q196.520751953125 206.2802734375 238.4605712890625 156.6004638671875Q280.400390625 106.920654296875 350.080078125 106.920654296875Q419.999755859375 106.920654296875 461.5595703125 156.6004638671875Q503.119384765625 206.2802734375 503.119384765625 304Z" transform="translate(-17.82 0) scale(0.05092 -0.05092)"/></g><g transform="translate(254.80 103.98) rotate(347.01)"><path d="M70.759765625 421.120849609375H223.440673828125V6.47998046875L152.000244140625 -2.280029296875Q114.760009765625 -2.280029296875 92.7598876953125 19.7200927734375Q70.759765625 41.72021484375 70.759765625 78.96044921875ZM152.000244140625 -2.280029296875V121.6806640625H466.360107421875Q472.880126953125 112.360595703125 478.16015625 96.5205078125Q483.440185546875 80.680419921875 483.440185546875 62.080322265625Q483.440185546875 29.880126953125 469.1201171875 13.800048828125Q454.800048828125 -2.280029296875 429.919921875 -2.280029296875ZM223.440673828125 231.1591796875H70.759765625V607.52001953125Q81.079833984375 609.52001953125 101.4599609375 612.780029296875Q121.840087890625 616.0400390625 141.440185546875 616.0400390625Q184.720458984375 616.0400390625 204.08056640625 601.0799560546875Q223.440673828125 586.119873046875 223.440673828125 544.07958984375Z" transform="translate(-12.98 0) scale(0.05092 -0.05092)"/></g><g transform="translate(292.09 98.99) rotate(357.75)"><path d="M221.6806640625 249.0400390625 70.759765625 249.280029296875V525.239501953125Q70.759765625 562.7197265625 92.639892578125 584.599853515625Q114.52001953125 606.47998046875 152.000244140625 606.47998046875Q172.88037109375 606.47998046875 192.6204833984375 603.47998046875Q212.360595703125 600.47998046875 221.6806640625 597.719970703125ZM150.480224609375 226.279541015625V347.72021484375H450.520263671875Q456.560302734375 338.16015625 461.84033203125 322.820068359375Q467.120361328125 307.47998046875 467.120361328125 289.119873046875Q467.120361328125 257.15966796875 452.6602783203125 241.7196044921875Q438.2001953125 226.279541015625 413.320068359375 226.279541015625ZM152.000244140625 483.519287109375V606.47998046875H484.76025390625Q490.80029296875 597.159912109375 495.7003173828125 581.31982421875Q500.600341796875 565.479736328125 500.600341796875 547.11962890625Q500.600341796875 515.159423828125 486.1402587890625 499.33935546875Q471.68017578125 483.519287109375 446.800048828125 483.519287109375ZM70.759765625 308.119384765625H223.440673828125V1Q213.880615234375 -1.52001953125 193.8804931640625 -4.4000244140625Q173.88037109375 -7.280029296875 153.000244140625 -7.280029296875Q108.199951171875 -7.280029296875 89.4798583984375 8.9400634765625Q70.759765625 25.16015625 70.759765625 64.4404296875Z" transform="translate(-13.44 0) scale(0.05092 -0.05092)"/></g><g transform="translate(329.66 101.03) rotate(368.48)"><path d="M70.759765625 423.7607421875H219.400634765625V6.47998046875Q210.08056640625 3.9599609375 191.48046875 0.8399658203125Q172.88037109375 -2.280029296875 152.000244140625 -2.280029296875Q114.52001953125 -2.280029296875 92.639892578125 19.7200927734375Q70.759765625 41.72021484375 70.759765625 78.96044921875ZM219.400634765625 181.879150390625 70.759765625 182.119140625V525.239501953125Q70.759765625 562.7197265625 92.639892578125 584.599853515625Q114.52001953125 606.47998046875 152.000244140625 606.47998046875Q172.88037109375 606.47998046875 191.48046875 603.47998046875Q210.08056640625 600.47998046875 219.400634765625 597.719970703125ZM152.000244140625 249.11962890625V368.80029296875H453.76025390625Q459.80029296875 359.480224609375 464.7003173828125 344.400146484375Q469.600341796875 329.320068359375 469.600341796875 310.9599609375Q469.600341796875 278.999755859375 455.520263671875 264.0596923828125Q441.440185546875 249.11962890625 416.56005859375 249.11962890625ZM152.000244140625 -2.280029296875V118.920654296875H486.72021484375Q492.76025390625 109.6005859375 497.6602783203125 93.8804931640625Q502.560302734375 78.160400390625 502.560302734375 59.560302734375Q502.560302734375 27.60009765625 488.480224609375 12.6600341796875Q474.400146484375 -2.280029296875 449.52001953125 -2.280029296875ZM152.000244140625 485.79931640625V606.47998046875H482.480224609375Q488.520263671875 597.159912109375 493.4202880859375 582.079833984375Q498.3203125 566.999755859375 498.3203125 548.6396484375Q498.3203125 516.679443359375 484.240234375 501.2393798828125Q470.16015625 485.79931640625 445.280029296875 485.79931640625Z" transform="translate(-13.85 0) scale(0.05092 -0.05092)"/></g><g transform="translate(366.19 110.04) rotate(379.21)"><path d="M221.6806640625 321.560302734375H287.280029296875Q336.959716796875 321.560302734375 367.5595703125 344.0601806640625Q398.159423828125 366.56005859375 398.159423828125 410.559814453125Q398.159423828125 454.319580078125 368.9796142578125 476.8194580078125Q339.7998046875 499.3193359375 279.840087890625 499.3193359375Q263.480224609375 499.3193359375 249.2803955078125 497.9593505859375Q235.08056640625 496.599365234375 221.6806640625 494.119384765625ZM300.960205078125 204.15966796875H70.759765625V552.599853515625Q70.759765625 572.39990234375 81.9197998046875 583.179931640625Q93.079833984375 593.9599609375 111.35986328125 600.47998046875Q144.159912109375 611.760009765625 188.5599365234375 616.9000244140625Q232.9599609375 622.0400390625 281.320068359375 622.0400390625Q416.2001953125 622.0400390625 484.2802734375 565.3399658203125Q552.3603515625 508.639892578125 552.3603515625 412.079833984375Q552.3603515625 351.559814453125 519.6602783203125 304.519775390625Q486.960205078125 257.479736328125 430.5401611328125 230.8197021484375Q374.1201171875 204.15966796875 300.960205078125 204.15966796875ZM273.31982421875 240.039794921875 408.560791015625 271.559814453125Q432.000732421875 240.35986328125 456.6806640625 209.199951171875Q481.360595703125 178.0400390625 503.6605224609375 148.880126953125Q525.96044921875 119.72021484375 544.160400390625 95.4002685546875Q562.3603515625 71.080322265625 572.84033203125 54.3203125Q564.2802734375 24.400146484375 540.900146484375 7.56005859375Q517.52001953125 -9.280029296875 489.079833984375 -9.280029296875Q452.319580078125 -9.280029296875 432.5794677734375 7.2000732421875Q412.83935546875 23.68017578125 395.519287109375 51.080322265625ZM70.759765625 261.1201171875H223.440673828125V1.239990234375Q213.640625 -1.52001953125 193.760498046875 -4.4000244140625Q173.88037109375 -7.280029296875 152.76025390625 -7.280029296875Q107.9599609375 -7.280029296875 89.35986328125 8.9400634765625Q70.759765625 25.16015625 70.759765625 64.680419921875Z" transform="translate(-15.38 0) scale(0.05092 -0.05092)"/></g><g transform="translate(390.80 120.49) rotate(386.83)"><path d="M152.400634765625 390.6396484375Q143.12060546875 385.599609375 128.54052734375 382.07958984375Q113.96044921875 378.5595703125 96.600341796875 378.5595703125Q72.480224609375 378.5595703125 56.0001220703125 389.099609375Q39.52001953125 399.6396484375 37.760009765625 421.999755859375L26.43994140625 608.919921875Q39 618.47998046875 58.0001220703125 625.5400390625Q77.000244140625 632.60009765625 100.640380859375 632.60009765625Q134.08056640625 632.60009765625 152.70068359375 618.9200439453125Q171.32080078125 605.239990234375 171.32080078125 574.35986328125Q171.32080078125 556.599853515625 168.4207763671875 522.6798095703125Q165.520751953125 488.759765625 161.480712890625 452.8397216796875Q157.440673828125 416.919677734375 152.400634765625 390.6396484375Z" transform="translate(-5.09 0) scale(0.05092 -0.05092)"/></g><g transform="translate(413.80 134.11) rotate(394.45)"><path d="M252.43994140625 107.440673828125Q305.759765625 107.440673828125 329.2396240234375 126.9205322265625Q352.719482421875 146.400390625 352.719482421875 173.1201171875Q352.719482421875 198.159912109375 334.1995849609375 213.3797607421875Q315.6796875 228.599609375 279.9599609375 240.03955078125L227.160400390625 256.91943359375Q173.000244140625 275.239501953125 131.7401123046875 297.259521484375Q90.47998046875 319.279541015625 67.5198974609375 353.9595947265625Q44.559814453125 388.6396484375 44.559814453125 442.559814453125Q44.559814453125 525.639892578125 107.7799072265625 574.8399658203125Q171 624.0400390625 283.000244140625 624.0400390625Q340.040283203125 624.0400390625 384.4403076171875 612.9200439453125Q428.84033203125 601.800048828125 454.4803466796875 580.3800048828125Q480.120361328125 558.9599609375 480.120361328125 527.559814453125Q480.120361328125 505.439697265625 469.3203125 488.4796142578125Q458.520263671875 471.51953125 442.960205078125 460.199462890625Q420.240234375 475.639404296875 381.9202880859375 487.2193603515625Q343.600341796875 498.79931640625 298.160400390625 498.79931640625Q250.04052734375 498.79931640625 225.920654296875 483.179443359375Q201.80078125 467.5595703125 201.80078125 442.559814453125Q201.80078125 422.760009765625 217.940673828125 410.2601318359375Q234.08056640625 397.76025390625 266.2802734375 387.84033203125L321.2001953125 370.600341796875Q412.3603515625 342.520263671875 461.2803955078125 296.3402099609375Q510.200439453125 250.16015625 510.200439453125 171.60009765625Q510.200439453125 88.0400390625 445.100341796875 35.6199951171875Q380.000244140625 -16.800048828125 257 -16.800048828125Q196 -16.800048828125 147.8399658203125 -3.6800537109375Q99.679931640625 9.43994140625 71.5198974609375 34.1199951171875Q43.35986328125 58.800048828125 43.35986328125 91.72021484375Q43.35986328125 117.84033203125 58.7999267578125 136.180419921875Q74.239990234375 154.5205078125 92.800048828125 164.08056640625Q119.60009765625 142.08056640625 160.4600830078125 124.7606201171875Q201.320068359375 107.440673828125 252.43994140625 107.440673828125Z" transform="translate(-13.85 0) scale(0.05092 -0.05092)"/></g></g><g fill="#F7F0DF"><g transform="translate(131.66 459.38) rotate(406.57)"><path d="M222.440673828125 315.400390625H282.2001953125Q332.559814453125 315.400390625 362.4996337890625 339.020263671875Q392.439453125 362.64013671875 392.439453125 407.83984375Q392.439453125 453.03955078125 364.379638671875 476.179443359375Q336.31982421875 499.3193359375 283.16015625 499.3193359375Q264.520263671875 499.3193359375 250.180419921875 498.33935546875Q235.840576171875 497.359375 222.440673828125 494.87939453125ZM291.76025390625 194.959716796875H70.759765625V552.599853515625Q70.759765625 572.39990234375 81.9197998046875 583.179931640625Q93.079833984375 593.9599609375 111.35986328125 600.47998046875Q144.159912109375 611.760009765625 189.8399658203125 616.9000244140625Q235.52001953125 622.0400390625 273 622.0400390625Q407.60009765625 622.0400390625 477.500244140625 564.3599853515625Q547.400390625 506.679931640625 547.400390625 408.079833984375Q547.400390625 343.7998046875 516.7203369140625 295.8997802734375Q486.040283203125 247.999755859375 429.000244140625 221.479736328125Q371.960205078125 194.959716796875 291.76025390625 194.959716796875ZM70.759765625 262.080078125H223.440673828125V1.239990234375Q213.640625 -1.52001953125 193.760498046875 -4.4000244140625Q173.88037109375 -7.280029296875 152.76025390625 -7.280029296875Q107.9599609375 -7.280029296875 89.35986328125 8.9400634765625Q70.759765625 25.16015625 70.759765625 64.680419921875Z" transform="translate(-14.72 0) scale(0.05092 -0.05092)"/></g><g transform="translate(159.67 484.52) rotate(397.25)"><path d="M314.72021484375 479.63916015625H309.2001953125Q298.76025390625 448.279296875 285.4803466796875 409.279541015625Q272.200439453125 370.27978515625 257.9205322265625 327.780029296875Q243.640625 285.2802734375 230.720703125 242.92041015625L212.800537109375 153.439453125Q206.800537109375 133.91943359375 201.2205810546875 112.99951171875Q195.640625 92.07958984375 189.8206787109375 72.0797119140625Q184.000732421875 52.079833984375 178.80078125 33.7999267578125Q173.600830078125 15.52001953125 169.36083984375 0.280029296875Q157.80078125 -3.47998046875 143.8406982421875 -6.8800048828125Q129.880615234375 -10.280029296875 110.5205078125 -10.280029296875Q68.68017578125 -10.280029296875 46.6800537109375 5.06005859375Q24.679931640625 20.400146484375 24.679931640625 48.520263671875Q24.679931640625 61.3203125 28.43994140625 74.2403564453125Q32.199951171875 87.160400390625 36.9599609375 104.240478515625Q45.919921875 136.720458984375 62.2799072265625 186.8604736328125Q78.639892578125 237.00048828125 98.4998779296875 295.3804931640625Q118.35986328125 353.760498046875 138.6998291015625 410.96044921875Q159.039794921875 468.160400390625 176.479736328125 515.9002685546875Q193.919677734375 563.64013671875 204.5595703125 591.119873046875Q219.399658203125 599.679931640625 249.83984375 607.47998046875Q280.280029296875 615.280029296875 310.2001953125 615.280029296875Q353.00048828125 615.280029296875 387.0806884765625 602.8199462890625Q421.160888671875 590.35986328125 429.9609375 562.6796875Q449.40087890625 509.999755859375 471.580810546875 440.2998046875Q493.7607421875 370.599853515625 516.8206787109375 294.89990234375Q539.880615234375 219.199951171875 561.2005615234375 147.6199951171875Q582.5205078125 76.0400390625 598.720458984375 18.840087890625Q587.92041015625 6.800048828125 566.9202880859375 -1.3599853515625Q545.920166015625 -9.52001953125 517.47998046875 -9.52001953125Q475.6796875 -9.52001953125 458.839599609375 5.06005859375Q441.99951171875 19.64013671875 433.4794921875 50.2802734375L401.27978515625 162.359619140625L384.15966796875 247.3603515625Q371.759765625 291.64013671875 358.9998779296875 333.8798828125Q346.239990234375 376.11962890625 334.9600830078125 413.5394287109375Q323.68017578125 450.959228515625 314.72021484375 479.63916015625ZM146.440185546875 134.6396484375 205.12060546875 253.3203125H439.280029296875L459.080078125 134.6396484375Z" transform="translate(-15.76 0) scale(0.05092 -0.05092)"/></g><g transform="translate(191.38 504.80) rotate(387.94)"><path d="M70.999755859375 423.040771484375H223.440673828125V1.239990234375Q213.880615234375 -1.52001953125 194.00048828125 -4.4000244140625Q174.120361328125 -7.280029296875 153.000244140625 -7.280029296875Q108.199951171875 -7.280029296875 89.599853515625 8.9400634765625Q70.999755859375 25.16015625 70.999755859375 64.680419921875ZM223.440673828125 231.399169921875H70.999755859375V607.52001953125Q81.31982421875 609.52001953125 101.699951171875 612.780029296875Q122.080078125 616.0400390625 141.68017578125 616.0400390625Q184.96044921875 616.0400390625 204.2005615234375 601.0799560546875Q223.440673828125 586.119873046875 223.440673828125 544.07958984375Z" transform="translate(-7.51 0) scale(0.05092 -0.05092)"/></g><g transform="translate(225.96 519.68) rotate(378.63)"><path d="M221.6806640625 321.560302734375H287.280029296875Q336.959716796875 321.560302734375 367.5595703125 344.0601806640625Q398.159423828125 366.56005859375 398.159423828125 410.559814453125Q398.159423828125 454.319580078125 368.9796142578125 476.8194580078125Q339.7998046875 499.3193359375 279.840087890625 499.3193359375Q263.480224609375 499.3193359375 249.2803955078125 497.9593505859375Q235.08056640625 496.599365234375 221.6806640625 494.119384765625ZM300.960205078125 204.15966796875H70.759765625V552.599853515625Q70.759765625 572.39990234375 81.9197998046875 583.179931640625Q93.079833984375 593.9599609375 111.35986328125 600.47998046875Q144.159912109375 611.760009765625 188.5599365234375 616.9000244140625Q232.9599609375 622.0400390625 281.320068359375 622.0400390625Q416.2001953125 622.0400390625 484.2802734375 565.3399658203125Q552.3603515625 508.639892578125 552.3603515625 412.079833984375Q552.3603515625 351.559814453125 519.6602783203125 304.519775390625Q486.960205078125 257.479736328125 430.5401611328125 230.8197021484375Q374.1201171875 204.15966796875 300.960205078125 204.15966796875ZM273.31982421875 240.039794921875 408.560791015625 271.559814453125Q432.000732421875 240.35986328125 456.6806640625 209.199951171875Q481.360595703125 178.0400390625 503.6605224609375 148.880126953125Q525.96044921875 119.72021484375 544.160400390625 95.4002685546875Q562.3603515625 71.080322265625 572.84033203125 54.3203125Q564.2802734375 24.400146484375 540.900146484375 7.56005859375Q517.52001953125 -9.280029296875 489.079833984375 -9.280029296875Q452.319580078125 -9.280029296875 432.5794677734375 7.2000732421875Q412.83935546875 23.68017578125 395.519287109375 51.080322265625ZM70.759765625 261.1201171875H223.440673828125V1.239990234375Q213.640625 -1.52001953125 193.760498046875 -4.4000244140625Q173.88037109375 -7.280029296875 152.76025390625 -7.280029296875Q107.9599609375 -7.280029296875 89.35986328125 8.9400634765625Q70.759765625 25.16015625 70.759765625 64.680419921875Z" transform="translate(-15.38 0) scale(0.05092 -0.05092)"/></g><g transform="translate(262.48 528.76) rotate(369.31)"><path d="M271.879638671875 196.07958984375H51.8798828125Q45.83984375 206.11962890625 40.7998046875 221.5997314453125Q35.759765625 237.079833984375 35.759765625 254.679931640625Q35.759765625 286.880126953125 50.9598388671875 301.460205078125Q66.159912109375 316.040283203125 90.52001953125 316.040283203125H310.519775390625Q315.559814453125 307.000244140625 321.099853515625 291.0201416015625Q326.639892578125 275.0400390625 326.639892578125 257.679931640625Q326.639892578125 225.7197265625 311.559814453125 210.899658203125Q296.479736328125 196.07958984375 271.879638671875 196.07958984375Z" transform="translate(-9.22 0) scale(0.05092 -0.05092)"/></g><g transform="translate(300.00 531.82) rotate(360.00)"><path d="M314.72021484375 479.63916015625H309.2001953125Q298.76025390625 448.279296875 285.4803466796875 409.279541015625Q272.200439453125 370.27978515625 257.9205322265625 327.780029296875Q243.640625 285.2802734375 230.720703125 242.92041015625L212.800537109375 153.439453125Q206.800537109375 133.91943359375 201.2205810546875 112.99951171875Q195.640625 92.07958984375 189.8206787109375 72.0797119140625Q184.000732421875 52.079833984375 178.80078125 33.7999267578125Q173.600830078125 15.52001953125 169.36083984375 0.280029296875Q157.80078125 -3.47998046875 143.8406982421875 -6.8800048828125Q129.880615234375 -10.280029296875 110.5205078125 -10.280029296875Q68.68017578125 -10.280029296875 46.6800537109375 5.06005859375Q24.679931640625 20.400146484375 24.679931640625 48.520263671875Q24.679931640625 61.3203125 28.43994140625 74.2403564453125Q32.199951171875 87.160400390625 36.9599609375 104.240478515625Q45.919921875 136.720458984375 62.2799072265625 186.8604736328125Q78.639892578125 237.00048828125 98.4998779296875 295.3804931640625Q118.35986328125 353.760498046875 138.6998291015625 410.96044921875Q159.039794921875 468.160400390625 176.479736328125 515.9002685546875Q193.919677734375 563.64013671875 204.5595703125 591.119873046875Q219.399658203125 599.679931640625 249.83984375 607.47998046875Q280.280029296875 615.280029296875 310.2001953125 615.280029296875Q353.00048828125 615.280029296875 387.0806884765625 602.8199462890625Q421.160888671875 590.35986328125 429.9609375 562.6796875Q449.40087890625 509.999755859375 471.580810546875 440.2998046875Q493.7607421875 370.599853515625 516.8206787109375 294.89990234375Q539.880615234375 219.199951171875 561.2005615234375 147.6199951171875Q582.5205078125 76.0400390625 598.720458984375 18.840087890625Q587.92041015625 6.800048828125 566.9202880859375 -1.3599853515625Q545.920166015625 -9.52001953125 517.47998046875 -9.52001953125Q475.6796875 -9.52001953125 458.839599609375 5.06005859375Q441.99951171875 19.64013671875 433.4794921875 50.2802734375L401.27978515625 162.359619140625L384.15966796875 247.3603515625Q371.759765625 291.64013671875 358.9998779296875 333.8798828125Q346.239990234375 376.11962890625 334.9600830078125 413.5394287109375Q323.68017578125 450.959228515625 314.72021484375 479.63916015625ZM146.440185546875 134.6396484375 205.12060546875 253.3203125H439.280029296875L459.080078125 134.6396484375Z" transform="translate(-15.76 0) scale(0.05092 -0.05092)"/></g><g transform="translate(337.52 528.76) rotate(350.69)"><path d="M271.879638671875 196.07958984375H51.8798828125Q45.83984375 206.11962890625 40.7998046875 221.5997314453125Q35.759765625 237.079833984375 35.759765625 254.679931640625Q35.759765625 286.880126953125 50.9598388671875 301.460205078125Q66.159912109375 316.040283203125 90.52001953125 316.040283203125H310.519775390625Q315.559814453125 307.000244140625 321.099853515625 291.0201416015625Q326.639892578125 275.0400390625 326.639892578125 257.679931640625Q326.639892578125 225.7197265625 311.559814453125 210.899658203125Q296.479736328125 196.07958984375 271.879638671875 196.07958984375Z" transform="translate(-9.22 0) scale(0.05092 -0.05092)"/></g><g transform="translate(374.04 519.68) rotate(341.37)"><path d="M466.359375 303.39990234375Q466.359375 206.520263671875 418.8995361328125 157.6004638671875Q371.439697265625 108.6806640625 291.68017578125 108.6806640625Q274.84033203125 108.6806640625 255.700439453125 110.3006591796875Q236.560546875 111.920654296875 222.440673828125 114.880615234375V493.599365234375Q238.640625 496.079345703125 255.4205322265625 497.3193359375Q272.200439453125 498.559326171875 290.2802734375 498.559326171875Q342.320068359375 498.559326171875 381.85986328125 477.099365234375Q421.399658203125 455.639404296875 443.8795166015625 412.6395263671875Q466.359375 369.6396484375 466.359375 303.39990234375ZM623.080322265625 305.679931640625Q623.080322265625 413.239990234375 580.060302734375 483.1400146484375Q537.040283203125 553.0400390625 460.500244140625 587.5400390625Q383.960205078125 622.0400390625 281.400146484375 622.0400390625Q243.16015625 622.0400390625 197.320068359375 617.9000244140625Q151.47998046875 613.760009765625 111.35986328125 600.719970703125Q93.079833984375 594.199951171875 81.9197998046875 583.419921875Q70.759765625 572.639892578125 70.759765625 552.83984375V74.560302734375Q70.759765625 27.1201171875 122.639892578125 8.0400390625Q161.679931640625 -6 209.780029296875 -10.4000244140625Q257.880126953125 -14.800048828125 291.16015625 -14.800048828125Q391.2001953125 -14.800048828125 465.740234375 20.5799560546875Q540.2802734375 55.9599609375 581.6802978515625 127.0799560546875Q623.080322265625 198.199951171875 623.080322265625 305.679931640625Z" transform="translate(-16.88 0) scale(0.05092 -0.05092)"/></g><g transform="translate(408.62 504.80) rotate(332.06)"><path d="M70.999755859375 423.040771484375H223.440673828125V1.239990234375Q213.880615234375 -1.52001953125 194.00048828125 -4.4000244140625Q174.120361328125 -7.280029296875 153.000244140625 -7.280029296875Q108.199951171875 -7.280029296875 89.599853515625 8.9400634765625Q70.999755859375 25.16015625 70.999755859375 64.680419921875ZM223.440673828125 231.399169921875H70.999755859375V607.52001953125Q81.31982421875 609.52001953125 101.699951171875 612.780029296875Q122.080078125 616.0400390625 141.68017578125 616.0400390625Q184.96044921875 616.0400390625 204.2005615234375 601.0799560546875Q223.440673828125 586.119873046875 223.440673828125 544.07958984375Z" transform="translate(-7.51 0) scale(0.05092 -0.05092)"/></g><g transform="translate(440.33 484.52) rotate(322.75)"><path d="M539.080078125 523.519775390625Q539.080078125 501.399658203125 527.1600341796875 484.0595703125Q515.239990234375 466.719482421875 499.679931640625 457.159423828125Q474.679931640625 474.3994140625 443.3599853515625 487.359375Q412.0400390625 500.3193359375 368.960205078125 500.3193359375Q315.560302734375 500.3193359375 276.9404296875 477.2593994140625Q238.320556640625 454.199462890625 217.420654296875 410.099609375Q196.520751953125 365.999755859375 196.520751953125 303Q196.520751953125 206.600341796875 244.860595703125 156.760498046875Q293.200439453125 106.920654296875 376.520263671875 106.920654296875Q420.16015625 106.920654296875 451.1800537109375 118.880615234375Q482.199951171875 130.840576171875 507.9599609375 146.04052734375Q523.280029296875 135.200439453125 532.6600341796875 117.4803466796875Q542.0400390625 99.76025390625 542.0400390625 76.64013671875Q542.0400390625 56.760009765625 531.5999755859375 40.0399169921875Q521.159912109375 23.31982421875 495.999755859375 11.27978515625Q476.7998046875 1.35986328125 442.119873046875 -7.7200927734375Q407.43994140625 -16.800048828125 356.840087890625 -16.800048828125Q268.52001953125 -16.800048828125 196.4599609375 17.5599365234375Q124.39990234375 51.919921875 81.9798583984375 122.679931640625Q39.559814453125 193.43994140625 39.559814453125 303Q39.559814453125 407.239990234375 81.1998291015625 478.6199951171875Q122.83984375 550 193.139892578125 587.02001953125Q263.43994140625 624.0400390625 347.760009765625 624.0400390625Q407.320068359375 624.0400390625 450.080078125 610.52001953125Q492.840087890625 597 515.9600830078125 574.3199462890625Q539.080078125 551.639892578125 539.080078125 523.519775390625Z" transform="translate(-14.64 0) scale(0.05092 -0.05092)"/></g><g transform="translate(468.34 459.38) rotate(313.43)"><path d="M70.759765625 423.7607421875H219.400634765625V6.47998046875Q210.08056640625 3.9599609375 191.48046875 0.8399658203125Q172.88037109375 -2.280029296875 152.000244140625 -2.280029296875Q114.52001953125 -2.280029296875 92.639892578125 19.7200927734375Q70.759765625 41.72021484375 70.759765625 78.96044921875ZM219.400634765625 181.879150390625 70.759765625 182.119140625V525.239501953125Q70.759765625 562.7197265625 92.639892578125 584.599853515625Q114.52001953125 606.47998046875 152.000244140625 606.47998046875Q172.88037109375 606.47998046875 191.48046875 603.47998046875Q210.08056640625 600.47998046875 219.400634765625 597.719970703125ZM152.000244140625 249.11962890625V368.80029296875H453.76025390625Q459.80029296875 359.480224609375 464.7003173828125 344.400146484375Q469.600341796875 329.320068359375 469.600341796875 310.9599609375Q469.600341796875 278.999755859375 455.520263671875 264.0596923828125Q441.440185546875 249.11962890625 416.56005859375 249.11962890625ZM152.000244140625 -2.280029296875V118.920654296875H486.72021484375Q492.76025390625 109.6005859375 497.6602783203125 93.8804931640625Q502.560302734375 78.160400390625 502.560302734375 59.560302734375Q502.560302734375 27.60009765625 488.480224609375 12.6600341796875Q474.400146484375 -2.280029296875 449.52001953125 -2.280029296875ZM152.000244140625 485.79931640625V606.47998046875H482.480224609375Q488.520263671875 597.159912109375 493.4202880859375 582.079833984375Q498.3203125 566.999755859375 498.3203125 548.6396484375Q498.3203125 516.679443359375 484.240234375 501.2393798828125Q470.16015625 485.79931640625 445.280029296875 485.79931640625Z" transform="translate(-13.85 0) scale(0.05092 -0.05092)"/></g></g><g transform="rotate(45 516.5 300.0)"><rect x="512.5" y="296.0" width="8.0" height="8.0" fill="#E8C24B"/></g><g transform="rotate(45 83.5 300.0)"><rect x="79.5" y="296.0" width="8.0" height="8.0" fill="#E8C24B"/></g><defs><clipPath id="crestscene"><circle cx="300" cy="286.6" r="117.92"/></clipPath></defs><g clip-path="url(#crestscene)"><svg x="182.08" y="168.68" width="235.84" height="235.84" viewBox="0 0 200 200" preserveAspectRatio="xMidYMid slice">
<defs><clipPath id="cc1"><path d="M110.67 114.76 Q116 112 121.33 114.76 L137.67 123.24 Q143 126 143 132 L143 149 Q143 155 137.67 157.76 L121.33 166.24 Q116 169 110.67 166.24 L94.33 157.76 Q89 155 89 149 L89 132 Q89 126 94.33 123.24 Z"/></clipPath><clipPath id="cc2"><path d="M154.67 98.76 Q160 96 165.33 98.76 L181.67 107.24 Q187 110 187 116 L187 133 Q187 139 181.67 141.76 L165.33 150.24 Q160 153 154.67 150.24 L138.33 141.76 Q133 139 133 133 L133 116 Q133 110 138.33 107.24 Z"/></clipPath></defs>
<rect width="200" height="200" fill="#8ECAE6"/>
<circle cx="188" cy="14" r="48" fill="#A8D8EC"/>
<circle cx="188" cy="14" r="32" fill="#F5EFC2"/>
<path d="M-10 210 L-10 92 Q100 54 210 92 L210 210 Z" fill="#1E6B3C"/>
<path d="M-10 210 L-10 138 Q100 106 210 138 L210 210 Z" fill="#6CBF4A"/>
<ellipse cx="64" cy="156" rx="9" ry="3.5" fill="#0E3D26"/>
<line x1="64" y1="68" x2="64" y2="157.5" stroke="#FFFFFF" stroke-width="3.2"/>
<ellipse cx="64" cy="158.2" rx="7" ry="2.2" fill="#0E3D26"/>
<g transform="translate(64,70) rotate(6) scale(1.4)">
<circle cx="0" cy="-27" r="3" fill="#FFFFFF"/>
<path d="M0 -24 L-40 4 Q0 -4 40 4 Z" fill="#F06FA8"/>
<path d="M0 -24 L-13.3 0.44 Q0 -4 13.3 0.44 Z" fill="#F58FBC"/>
<line x1="0" y1="-24" x2="-40" y2="4" stroke="#FFFFFF" stroke-width="1.8"/>
<line x1="0" y1="-24" x2="-13.3" y2="0.44" stroke="#FFFFFF" stroke-width="1.5"/>
<line x1="0" y1="-24" x2="13.3" y2="0.44" stroke="#FFFFFF" stroke-width="1.5"/>
<line x1="0" y1="-24" x2="40" y2="4" stroke="#FFFFFF" stroke-width="1.8"/>
<circle cx="-40" cy="4" r="2" fill="#FFFFFF"/><circle cx="-13.3" cy="0.44" r="2" fill="#FFFFFF"/><circle cx="13.3" cy="0.44" r="2" fill="#FFFFFF"/><circle cx="40" cy="4" r="2" fill="#FFFFFF"/>
</g>
<ellipse cx="160" cy="156" rx="30" ry="5" fill="#57A53F"/>
<g clip-path="url(#cc2)">
<polygon points="160,96 187,110 160,124 133,110" fill="#FFFFFF"/>
<polygon points="133,110 160,124 160,153 133,139" fill="#F0EDE4"/>
<polygon points="160,124 187,110 187,139 160,153" fill="#E3DFD2"/>
<g transform="matrix(0.27,0.14,-0.27,0.14,160,96)"><circle cx="25" cy="25" r="10.5" fill="#2A2A2A"/><circle cx="75" cy="25" r="10.5" fill="#2A2A2A"/><circle cx="25" cy="75" r="10.5" fill="#2A2A2A"/><circle cx="75" cy="75" r="10.5" fill="#2A2A2A"/><circle cx="50" cy="50" r="10.5" fill="#2A2A2A"/></g>
<g transform="matrix(0.27,0.14,0,0.29,133,110)"><circle cx="20" cy="33" r="8.5" fill="#2A2A2A"/><circle cx="50" cy="33" r="8.5" fill="#2A2A2A"/><circle cx="80" cy="33" r="8.5" fill="#2A2A2A"/><circle cx="20" cy="67" r="8.5" fill="#2A2A2A"/><circle cx="50" cy="67" r="8.5" fill="#2A2A2A"/><circle cx="80" cy="67" r="8.5" fill="#2A2A2A"/></g>
<g transform="matrix(0.27,-0.14,0,0.29,160,124)"><circle cx="30" cy="30" r="10" fill="#2A2A2A"/><circle cx="70" cy="30" r="10" fill="#2A2A2A"/><circle cx="30" cy="70" r="10" fill="#2A2A2A"/><circle cx="70" cy="70" r="10" fill="#2A2A2A"/></g>
</g>
<ellipse cx="116" cy="172" rx="34" ry="6" fill="#57A53F"/>
<g clip-path="url(#cc1)">
<polygon points="116,112 143,126 116,140 89,126" fill="#FFFFFF"/>
<polygon points="89,126 116,140 116,169 89,155" fill="#F0EDE4"/>
<polygon points="116,140 143,126 143,155 116,169" fill="#E3DFD2"/>
<g transform="matrix(0.27,0.14,-0.27,0.14,116,112)"><circle cx="50" cy="50" r="14" fill="#2A2A2A"/></g>
<g transform="matrix(0.27,0.14,0,0.29,89,126)"><circle cx="30" cy="30" r="12" fill="#2A2A2A"/><circle cx="70" cy="70" r="12" fill="#2A2A2A"/></g>
<g transform="matrix(0.27,-0.14,0,0.29,116,140)"><circle cx="25" cy="25" r="12" fill="#2A2A2A"/><circle cx="50" cy="50" r="12" fill="#2A2A2A"/><circle cx="75" cy="75" r="12" fill="#2A2A2A"/></g>
</g>
</svg></g><circle cx="300" cy="286.6" r="117.9" fill="none" stroke="#E8C24B" stroke-width="3.2"/><g fill="#E8C24B" ><path d="M70.759765625 423.7607421875H219.400634765625V6.47998046875Q210.08056640625 3.9599609375 191.48046875 0.8399658203125Q172.88037109375 -2.280029296875 152.000244140625 -2.280029296875Q114.52001953125 -2.280029296875 92.639892578125 19.7200927734375Q70.759765625 41.72021484375 70.759765625 78.96044921875ZM219.400634765625 181.879150390625 70.759765625 182.119140625V525.239501953125Q70.759765625 562.7197265625 92.639892578125 584.599853515625Q114.52001953125 606.47998046875 152.000244140625 606.47998046875Q172.88037109375 606.47998046875 191.48046875 603.47998046875Q210.08056640625 600.47998046875 219.400634765625 597.719970703125ZM152.000244140625 249.11962890625V368.80029296875H453.76025390625Q459.80029296875 359.480224609375 464.7003173828125 344.400146484375Q469.600341796875 329.320068359375 469.600341796875 310.9599609375Q469.600341796875 278.999755859375 455.520263671875 264.0596923828125Q441.440185546875 249.11962890625 416.56005859375 249.11962890625ZM152.000244140625 -2.280029296875V118.920654296875H486.72021484375Q492.76025390625 109.6005859375 497.6602783203125 93.8804931640625Q502.560302734375 78.160400390625 502.560302734375 59.560302734375Q502.560302734375 27.60009765625 488.480224609375 12.6600341796875Q474.400146484375 -2.280029296875 449.52001953125 -2.280029296875ZM152.000244140625 485.79931640625V606.47998046875H482.480224609375Q488.520263671875 597.159912109375 493.4202880859375 582.079833984375Q498.3203125 566.999755859375 498.3203125 548.6396484375Q498.3203125 516.679443359375 484.240234375 501.2393798828125Q470.16015625 485.79931640625 445.280029296875 485.79931640625Z" transform="translate(221.523 434.000) scale(0.02466 -0.02466)"/><path d="M252.43994140625 107.440673828125Q305.759765625 107.440673828125 329.2396240234375 126.9205322265625Q352.719482421875 146.400390625 352.719482421875 173.1201171875Q352.719482421875 198.159912109375 334.1995849609375 213.3797607421875Q315.6796875 228.599609375 279.9599609375 240.03955078125L227.160400390625 256.91943359375Q173.000244140625 275.239501953125 131.7401123046875 297.259521484375Q90.47998046875 319.279541015625 67.5198974609375 353.9595947265625Q44.559814453125 388.6396484375 44.559814453125 442.559814453125Q44.559814453125 525.639892578125 107.7799072265625 574.8399658203125Q171 624.0400390625 283.000244140625 624.0400390625Q340.040283203125 624.0400390625 384.4403076171875 612.9200439453125Q428.84033203125 601.800048828125 454.4803466796875 580.3800048828125Q480.120361328125 558.9599609375 480.120361328125 527.559814453125Q480.120361328125 505.439697265625 469.3203125 488.4796142578125Q458.520263671875 471.51953125 442.960205078125 460.199462890625Q420.240234375 475.639404296875 381.9202880859375 487.2193603515625Q343.600341796875 498.79931640625 298.160400390625 498.79931640625Q250.04052734375 498.79931640625 225.920654296875 483.179443359375Q201.80078125 467.5595703125 201.80078125 442.559814453125Q201.80078125 422.760009765625 217.940673828125 410.2601318359375Q234.08056640625 397.76025390625 266.2802734375 387.84033203125L321.2001953125 370.600341796875Q412.3603515625 342.520263671875 461.2803955078125 296.3402099609375Q510.200439453125 250.16015625 510.200439453125 171.60009765625Q510.200439453125 88.0400390625 445.100341796875 35.6199951171875Q380.000244140625 -16.800048828125 257 -16.800048828125Q196 -16.800048828125 147.8399658203125 -3.6800537109375Q99.679931640625 9.43994140625 71.5198974609375 34.1199951171875Q43.35986328125 58.800048828125 43.35986328125 91.72021484375Q43.35986328125 117.84033203125 58.7999267578125 136.180419921875Q74.239990234375 154.5205078125 92.800048828125 164.08056640625Q119.60009765625 142.08056640625 160.4600830078125 124.7606201171875Q201.320068359375 107.440673828125 252.43994140625 107.440673828125Z" transform="translate(238.151 434.000) scale(0.02466 -0.02466)"/><path d="M203.2392578125 483.519287109375 202.039306640625 606.47998046875H511.040283203125Q517.080322265625 597.159912109375 521.9803466796875 581.31982421875Q526.88037109375 565.479736328125 526.88037109375 547.11962890625Q526.88037109375 515.159423828125 512.4202880859375 499.33935546875Q497.960205078125 483.519287109375 473.080078125 483.519287109375ZM343.56103515625 606.47998046875 344.760986328125 483.519287109375H35.52001953125Q29.47998046875 493.079345703125 24.5799560546875 508.91943359375Q19.679931640625 524.759521484375 19.679931640625 543.11962890625Q19.679931640625 576.079833984375 34.1400146484375 591.2799072265625Q48.60009765625 606.47998046875 73.480224609375 606.47998046875ZM195.15966796875 510.519287109375H347.6005859375V1.239990234375Q338.04052734375 -1.52001953125 318.0404052734375 -4.4000244140625Q298.040283203125 -7.280029296875 277.16015625 -7.280029296875Q232.35986328125 -7.280029296875 213.759765625 8.9400634765625Q195.15966796875 25.16015625 195.15966796875 64.680419921875Z" transform="translate(254.780 434.000) scale(0.02466 -0.02466)"/><path d="M38.35986328125 282Q38.35986328125 329.440185546875 68.8399658203125 362.30029296875Q99.320068359375 395.160400390625 150.000244140625 395.160400390625Q201.4404296875 395.160400390625 231.9205322265625 362.30029296875Q262.400634765625 329.440185546875 262.400634765625 282Q262.400634765625 234.559814453125 231.9205322265625 202.19970703125Q201.4404296875 169.839599609375 150.000244140625 169.839599609375Q99.320068359375 169.839599609375 68.8399658203125 202.19970703125Q38.35986328125 234.559814453125 38.35986328125 282Z" transform="translate(287.802 434.000) scale(0.02466 -0.02466)"/><path d="M59.280029296875 525.999755859375Q59.280029296875 556.919921875 81.9000244140625 578.219970703125Q104.52001953125 599.52001953125 144.6600341796875 610.9000244140625Q184.800048828125 622.280029296875 237.64013671875 622.280029296875Q313.040283203125 622.280029296875 364.3603515625 598.5Q415.680419921875 574.719970703125 442.200439453125 533.43994140625Q468.720458984375 492.159912109375 468.720458984375 439.159912109375Q468.720458984375 385.679931640625 438.98046875 335.3399658203125Q409.240478515625 285 345.880615234375 232.2001953125L207.200927734375 116.16064453125H460.88037109375Q466.400390625 107.6005859375 471.3004150390625 92.260498046875Q476.200439453125 76.92041015625 476.200439453125 59.080322265625Q476.200439453125 27.880126953125 462.0003662109375 13.9400634765625Q447.80029296875 0 424.68017578125 0H76.240234375Q57.1201171875 13.080078125 46.4200439453125 33.8402099609375Q35.719970703125 54.600341796875 35.719970703125 81.04052734375Q35.719970703125 110.720703125 48.1800537109375 131.580810546875Q60.64013671875 152.44091796875 75.68017578125 165.720947265625L223.759765625 296.92041015625Q278.15966796875 344.2802734375 298.11962890625 374.2801513671875Q318.07958984375 404.280029296875 318.07958984375 431.31982421875Q318.07958984375 463.879638671875 293.2996826171875 483.239501953125Q268.519775390625 502.599365234375 222.52001953125 502.599365234375Q181.56005859375 502.599365234375 149.340087890625 489.4993896484375Q117.1201171875 476.3994140625 95.64013671875 461.679443359375Q80.840087890625 471.99951171875 70.06005859375 488.07958984375Q59.280029296875 504.15966796875 59.280029296875 525.999755859375Z" transform="translate(314.734 434.000) scale(0.02466 -0.02466)"/><path d="M411.279541015625 304Q411.279541015625 370.19970703125 397.379638671875 414.4395751953125Q383.479736328125 458.679443359375 358.35986328125 481.0194091796875Q333.239990234375 503.359375 299.360107421875 503.359375Q265.72021484375 503.359375 240.8603515625 480.8994140625Q216.00048828125 458.439453125 202.6005859375 414.07958984375Q189.20068359375 369.7197265625 189.20068359375 304Q189.20068359375 203.76025390625 218.04052734375 153.700439453125Q246.88037109375 103.640625 299.360107421875 103.640625Q352.83984375 103.640625 382.0596923828125 153.700439453125Q411.279541015625 203.76025390625 411.279541015625 304ZM300.1201171875 -15.280029296875Q223.280029296875 -15.280029296875 164.4599609375 20.3599853515625Q105.639892578125 56 72.599853515625 126.8800048828125Q39.559814453125 197.760009765625 39.559814453125 304Q39.559814453125 409.8798828125 73.559814453125 480.39990234375Q107.559814453125 550.919921875 166.4998779296875 586.5999755859375Q225.43994140625 622.280029296875 300.1201171875 622.280029296875Q374.2802734375 622.280029296875 433.34033203125 586.47998046875Q492.400390625 550.679931640625 526.660400390625 480.0399169921875Q560.92041015625 409.39990234375 560.92041015625 304Q560.92041015625 198 527.5003662109375 127.1199951171875Q494.080322265625 56.239990234375 435.26025390625 20.47998046875Q376.440185546875 -15.280029296875 300.1201171875 -15.280029296875Z" transform="translate(330.747 434.000) scale(0.02466 -0.02466)"/><path d="M59.280029296875 525.999755859375Q59.280029296875 556.919921875 81.9000244140625 578.219970703125Q104.52001953125 599.52001953125 144.6600341796875 610.9000244140625Q184.800048828125 622.280029296875 237.64013671875 622.280029296875Q313.040283203125 622.280029296875 364.3603515625 598.5Q415.680419921875 574.719970703125 442.200439453125 533.43994140625Q468.720458984375 492.159912109375 468.720458984375 439.159912109375Q468.720458984375 385.679931640625 438.98046875 335.3399658203125Q409.240478515625 285 345.880615234375 232.2001953125L207.200927734375 116.16064453125H460.88037109375Q466.400390625 107.6005859375 471.3004150390625 92.260498046875Q476.200439453125 76.92041015625 476.200439453125 59.080322265625Q476.200439453125 27.880126953125 462.0003662109375 13.9400634765625Q447.80029296875 0 424.68017578125 0H76.240234375Q57.1201171875 13.080078125 46.4200439453125 33.8402099609375Q35.719970703125 54.600341796875 35.719970703125 81.04052734375Q35.719970703125 110.720703125 48.1800537109375 131.580810546875Q60.64013671875 152.44091796875 75.68017578125 165.720947265625L223.759765625 296.92041015625Q278.15966796875 344.2802734375 298.11962890625 374.2801513671875Q318.07958984375 404.280029296875 318.07958984375 431.31982421875Q318.07958984375 463.879638671875 293.2996826171875 483.239501953125Q268.519775390625 502.599365234375 222.52001953125 502.599365234375Q181.56005859375 502.599365234375 149.340087890625 489.4993896484375Q117.1201171875 476.3994140625 95.64013671875 461.679443359375Q80.840087890625 471.99951171875 70.06005859375 488.07958984375Q59.280029296875 504.15966796875 59.280029296875 525.999755859375Z" transform="translate(348.756 434.000) scale(0.02466 -0.02466)"/><path d="M476.2802734375 540.479736328125Q476.2802734375 521.6396484375 467.500244140625 504.299560546875Q458.72021484375 486.95947265625 446.440185546875 478.159423828125Q420.64013671875 489.91943359375 391.6201171875 496.8994140625Q362.60009765625 503.87939453125 335.920166015625 503.87939453125Q272.3603515625 503.87939453125 234.4405517578125 466.4996337890625Q196.520751953125 429.119873046875 187.440673828125 355.720458984375Q207.440673828125 371.160400390625 242.4805908203125 385.30029296875Q277.5205078125 399.440185546875 318.76025390625 399.440185546875Q409.80029296875 399.440185546875 464.9002685546875 346.7801513671875Q520.000244140625 294.1201171875 520.000244140625 196.1201171875Q520.000244140625 137.920166015625 493.1202392578125 89.880126953125Q466.240234375 41.840087890625 414.940185546875 13.280029296875Q363.64013671875 -15.280029296875 288 -15.280029296875Q212.639892578125 -15.280029296875 156.599853515625 19.02001953125Q100.559814453125 53.320068359375 70.059814453125 120.7200927734375Q39.559814453125 188.1201171875 39.559814453125 287.280029296875Q39.559814453125 372.919921875 60.539794921875 436.2799072265625Q81.519775390625 499.639892578125 119.519775390625 540.7999267578125Q157.519775390625 581.9599609375 208.1798095703125 602.1199951171875Q258.83984375 622.280029296875 318.719970703125 622.280029296875Q367.400146484375 622.280029296875 402.8402099609375 613.0Q438.2802734375 603.719970703125 457.2802734375 585.7799072265625Q476.2802734375 567.83984375 476.2802734375 540.479736328125ZM288.760009765625 103.400634765625Q327.759765625 103.400634765625 349.1795654296875 128.6405029296875Q370.599365234375 153.88037109375 370.599365234375 195.840087890625Q370.599365234375 238.039794921875 348.299560546875 261.1796875Q325.999755859375 284.319580078125 287.719970703125 284.319580078125Q260.080322265625 284.319580078125 234.1405029296875 272.5997314453125Q208.20068359375 260.8798828125 192.80078125 242.320068359375L193.520751953125 224.999755859375Q193.520751953125 164.320068359375 220.2205810546875 133.8603515625Q246.92041015625 103.400634765625 288.760009765625 103.400634765625Z" transform="translate(364.769 434.000) scale(0.02466 -0.02466)"/></g></svg>