<?xml version="1.0" encoding="UTF-8"?>
<svg xmlns="http://www.w3.org/2000/svg" viewBox="0 0 100 130" width="100" height="130">


    <g transform="translate(20, 20)">
      
    <g id="bag-mark">
      <path d="M19.2,84 L14.399999999999999,93.6 L24,84 Z" fill="#0F2F22"/>
      <path d="M36,84 L31.2,93.6 L40.8,84 Z" fill="#0F2F22"/>
      <path d="M14.399999999999999,21.599999999999998 h31.2 a4.8,4.8 0 0 1 4.8,4.8 v52.8 a4.8,4.8 0 0 1 -4.8,4.8 h-31.2 a4.8,4.8 0 0 1 -4.8,-4.8 v-52.8 a4.8,4.8 0 0 1 4.8,-4.8 z" fill="#1B5E43"/>
      <path d="M19.2,45.6 h21.599999999999998 a2.4,2.4 0 0 1 2.4,2.4 v16.8 a2.4,2.4 0 0 1 -2.4,2.4 h-21.599999999999998 a2.4,2.4 0 0 1 -2.4,-2.4 v-16.8 a2.4,2.4 0 0 1 2.4,-2.4 z" fill="#154C36"/>
      <path d="M12,21.599999999999998 Q30,12 48,21.599999999999998" fill="none" stroke="#0F2F22" stroke-width="2.4" stroke-linecap="round"/>
      <path d="M9.6,26.4 Q2.4,45.6 9.6,64.8" fill="none" stroke="#0F2F22" stroke-width="3" stroke-linecap="round"/>
      <path d="M21.599999999999998,24 L16.8,2.4" stroke="#232323" stroke-width="2.64" stroke-linecap="round"/>
      <path d="M30,24 L30,2.4" stroke="#232323" stroke-width="2.64" stroke-linecap="round"/>
      <path d="M38.4,24 L43.199999999999996,2.4" stroke="#232323" stroke-width="2.64" stroke-linecap="round"/>
      <path d="M19.8,9.6 h3.5999999999999996" stroke="#1B5E43" stroke-width="2.4" stroke-linecap="round"/>
      <path d="M28.2,9.6 h3.5999999999999996" stroke="#1B5E43" stroke-width="2.4" stroke-linecap="round"/>
      <path d="M36.6,9.6 h3.5999999999999996" stroke="#1B5E43" stroke-width="2.4" stroke-linecap="round"/>
    </g>
      
      
    </g>
  
</svg>