<?xml version="1.0" encoding="UTF-8"?>
<svg xmlns="http://www.w3.org/2000/svg" viewBox="0 0 290.7685546875 162" width="290.7685546875" height="162">


    <g transform="translate(20, 20)">
      
    <g id="bag-mark">
      <path d="M10.88,81.19999999999999 L8.16,86.64 L13.600000000000001,81.19999999999999 Z" fill="#0F2F22"/>
      <path d="M20.400000000000002,81.19999999999999 L17.68,86.64 L23.12,81.19999999999999 Z" fill="#0F2F22"/>
      <path d="M8.16,45.839999999999996 h17.68 a2.72,2.72 0 0 1 2.72,2.72 v29.92 a2.72,2.72 0 0 1 -2.72,2.72 h-17.68 a2.72,2.72 0 0 1 -2.72,-2.72 v-29.92 a2.72,2.72 0 0 1 2.72,-2.72 z" fill="#1B5E43"/>
      <path d="M10.88,59.44 h12.24 a1.36,1.36 0 0 1 1.36,1.36 v9.520000000000001 a1.36,1.36 0 0 1 -1.36,1.36 h-12.24 a1.36,1.36 0 0 1 -1.36,-1.36 v-9.520000000000001 a1.36,1.36 0 0 1 1.36,-1.36 z" fill="#154C36"/>
      <path d="M6.800000000000001,45.839999999999996 Q17,40.39999999999999 27.200000000000003,45.839999999999996" fill="none" stroke="#0F2F22" stroke-width="1.36" stroke-linecap="round"/>
      <path d="M5.44,48.559999999999995 Q1.36,59.44 5.44,70.32" fill="none" stroke="#0F2F22" stroke-width="1.7000000000000002" stroke-linecap="round"/>
      <path d="M12.24,47.199999999999996 L9.520000000000001,34.959999999999994" stroke="#232323" stroke-width="1.4960000000000002" stroke-linecap="round"/>
      <path d="M17,47.199999999999996 L17,34.959999999999994" stroke="#232323" stroke-width="1.4960000000000002" stroke-linecap="round"/>
      <path d="M21.76,47.199999999999996 L24.48,34.959999999999994" stroke="#232323" stroke-width="1.4960000000000002" stroke-linecap="round"/>
      <path d="M11.22,39.03999999999999 h2.04" stroke="#1B5E43" stroke-width="1.36" stroke-linecap="round"/>
      <path d="M15.98,39.03999999999999 h2.04" stroke="#1B5E43" stroke-width="1.36" stroke-linecap="round"/>
      <path d="M20.740000000000002,39.03999999999999 h2.04" stroke="#1B5E43" stroke-width="1.36" stroke-linecap="round"/>
    </g>
      
      <g fill="#232323"><g transform="translate(63.00, 80.00) scale(0.016602, -0.016602)"><path d="M165 0L165 1490L714 1490Q873 1490 977 1438Q1081 1386 1132 1297.5Q1183 1209 1183 1099Q1183 1006 1149 942.5Q1115 879 1057.5 840.5Q1000 802 931 784L931 769Q1006 766 1077 721.5Q1148 677 1194.5 596.5Q1241 516 1241 401Q1241 288 1187.5 197Q1134 106 1023 53Q912 0 738 0ZM393 196L715 196Q875 196 945 258Q1015 320 1015 412Q1015 484 979.5 542Q944 600 879 634.5Q814 669 724 669L393 669ZM393 845L692 845Q767 845 828 874Q889 903 924 956Q959 1009 959 1080Q959 1172 895 1233.5Q831 1295 698 1295L393 1295Z"/></g>
<g transform="translate(85.33, 80.00) scale(0.016602, -0.016602)"><path d="M51 0L581 1490L861 1490L1401 0L1154 0L1017 393L431 393L298 0ZM950 583L864 829Q830 930 790 1067Q758 1173 720 1311Q682 1171 651 1064Q610 925 579 829L496 583Z"/></g>
<g transform="translate(108.19, 80.00) scale(0.016602, -0.016602)"><path d="M791 -20Q589 -20 436.5 73Q284 166 198.5 337.5Q113 509 113 744Q113 982 199.5 1153.5Q286 1325 437 1417.5Q588 1510 781 1510Q901 1510 1005.5 1474.5Q1110 1439 1192.5 1373.5Q1275 1308 1328.5 1217.5Q1382 1127 1400 1019L1166 1019Q1146 1084 1111 1136.5Q1076 1189 1027.5 1226Q979 1263 917.5 1282.5Q856 1302 783 1302Q657 1302 556.5 1238Q456 1174 397.5 1049.5Q339 925 339 745Q339 565 397.5 441Q456 317 558 252.5Q660 188 792 188Q912 188 1001.5 236.5Q1091 285 1141 375Q1188 460 1190 576L825 576L825 764L1413 764L1413 593Q1413 405 1332.5 267.5Q1252 130 1112 55Q972 -20 791 -20Z"/></g></g>
      
    <line x1="140.6064453125" y1="80" x2="140.6064453125" y2="40" stroke="#232323" stroke-width="3" stroke-linecap="round"/>
    <polygon points="144.1064453125,39.5 164.1064453125,45 144.1064453125,50.5" fill="#C8472B"/>
  
      <g fill="#232323"><g transform="translate(154.61, 80.00) scale(0.016602, -0.016602)"><path d="M165 0L165 1490L699 1490Q871 1490 986 1426Q1101 1362 1158 1253Q1215 1144 1215 1006Q1215 868 1157.5 758.5Q1100 649 985 585.5Q870 522 697 522L393 522L393 0ZM393 715L675 715Q785 715 853 753Q921 791 952.5 857Q984 923 984 1006Q984 1090 952.5 1155.5Q921 1221 852.5 1258Q784 1295 673 1295L393 1295Z"/></g>
<g transform="translate(176.42, 80.00) scale(0.016602, -0.016602)"><path d="M165 0L165 1490L699 1490Q871 1490 986 1426Q1101 1362 1158 1253Q1215 1144 1215 1006Q1215 868 1157.5 758.5Q1100 649 985 585.5Q870 522 697 522L393 522L393 0ZM393 715L675 715Q785 715 853 753Q921 791 952.5 857Q984 923 984 1006Q984 1090 952.5 1155.5Q921 1221 852.5 1258Q784 1295 673 1295L393 1295Z"/></g>
<g transform="translate(198.24, 80.00) scale(0.016602, -0.016602)"><path d="M165 0L165 1490L1103 1490L1103 1294L393 1294L393 850L1052 850L1052 655L393 655L393 196L1109 196L1109 0Z"/></g>
<g transform="translate(218.74, 80.00) scale(0.016602, -0.016602)"><path d="M165 0L165 1490L699 1490Q871 1490 986 1430.5Q1101 1371 1158 1265Q1215 1159 1215 1022Q1215 884 1157.5 780.5Q1100 677 985 620Q965 610 943 602L1271 0L1012 0L710 563Q704 563 697 563L393 563L393 0ZM393 758L675 758Q785 758 852.5 789.5Q920 821 952 880Q984 939 984 1022Q984 1106 952 1167Q920 1228 852 1261.5Q784 1295 673 1295L393 1295Z"/></g></g>
    
      
      <line x1="96.7966015625" y1="97.002" x2="126.7966015625" y2="97.002" stroke="#C9C9C9" stroke-width="1"/>
      <g fill="#8A8A8A"><g transform="translate(138.80, 102.00) scale(0.006973, -0.006973)"><path d="M180 0L180 1490L370 1490L370 168L1060 168L1060 0Z"/></g>
<g transform="translate(146.87, 102.00) scale(0.006973, -0.006973)"><path d="M180 0L180 1490L370 1490L370 168L1060 168L1060 0Z"/></g>
<g transform="translate(154.54, 102.00) scale(0.006973, -0.006973)"><path d="M783 -20Q592 -20 442.5 72.5Q293 165 207.5 336.5Q122 508 122 744Q122 981 207.5 1152.5Q293 1324 442.5 1417Q592 1510 783 1510Q896 1510 996.5 1477Q1097 1444 1177 1380.5Q1257 1317 1310.5 1226.5Q1364 1136 1384 1021L1194 1021Q1178 1098 1139.5 1156Q1101 1214 1045.5 1254Q990 1294 923 1314Q856 1334 783 1334Q649 1334 541 1266Q433 1198 370 1066.5Q307 935 307 744Q307 554 370.5 422.5Q434 291 542 223.5Q650 156 783 156Q856 156 923 176.5Q990 197 1045.5 236.5Q1101 276 1139.5 334.5Q1178 393 1194 469L1384 469Q1365 355 1311.5 265Q1258 175 1178 111Q1098 47 997.5 13.5Q897 -20 783 -20Z"/></g></g>
      <line x1="176.971953125" y1="97.002" x2="206.971953125" y2="97.002" stroke="#C9C9C9" stroke-width="1"/>
    
    </g>
  
</svg>