<svg xmlns="http://www.w3.org/2000/svg" viewBox="0 22.16 320.23 150.68" width="320" height="151"><rect x="0" y="22.16" width="320.23" height="150.68" fill="#0F2F22"/><g transform="translate(52.90,89) scale(0.68)">
<g transform="translate(-13,4) rotate(-18)"><rect x="-3.5" y="-56" width="7" height="56" rx="2" fill="#FFFFFF"/><rect x="-7" y="-58" width="14" height="9" rx="2" fill="#FFFFFF"/><rect x="-6" y="-36" width="12" height="4" rx="1" fill="#4A6B5C"/></g>
<g transform="translate(0,1)"><rect x="-3.5" y="-62" width="7" height="62" rx="2" fill="#FFFFFF"/><rect x="-7" y="-64" width="14" height="9" rx="2" fill="#FFFFFF"/><rect x="-6" y="-40" width="12" height="4" rx="1" fill="#4A6B5C"/></g>
<g transform="translate(13,4) rotate(16)"><rect x="-3.5" y="-52" width="7" height="52" rx="2" fill="#FFFFFF"/><rect x="-7" y="-54" width="14" height="9" rx="2" fill="#FFFFFF"/><rect x="-6" y="-34" width="12" height="4" rx="1" fill="#4A6B5C"/></g>
<path d="M -22 8 C -40 28, -40 64, -22 84" stroke="#FFFFFF" stroke-width="5" fill="none" stroke-linecap="round"/>
<rect x="-22" y="0" width="44" height="88" rx="10" fill="#FFFFFF"/>
<rect x="-22" y="80" width="44" height="8" rx="4" fill="#4A6B5C"/>
<rect x="-13" y="48" width="26" height="24" rx="6" fill="#C7D4CC"/>
<ellipse cx="0" cy="0" rx="22" ry="7" fill="#4A6B5C"/>
</g><path d="M96.86000000000001 102.0V77.263671875H106.11436186790468Q108.66435943603517 77.263671875 110.47442676186563 78.06735357642174Q112.28449408769609 78.87103527784348 113.24356617093088 80.32533276081085Q114.20263825416566 81.77963024377823 114.20263825416566 83.76617479324341Q114.20263825416566 85.18029576539993 113.70027582406999 86.24561724066734Q113.19791339397432 87.31093871593475 112.27005334258081 88.02546960115433Q111.3421932911873 88.7400004863739 110.04760478496553 89.14474767446518V89.17795079946518Q111.4916073536873 89.37750291824341 112.6527196621895 90.0950219631195Q113.8138319706917 90.8125410079956 114.4981478905678 92.04537218809128Q115.18246381044389 93.27820336818695 115.18246381044389 95.0485942363739Q115.18246381044389 97.14205187559128 114.20380200505258 98.70708099007607Q113.22514019966127 100.27211010456085 111.2683136022091 101.13605505228043Q109.31148700475694 102.0 106.39060603141786 102.0ZM100.51762901306154 98.88954973220825H106.15752957820894Q108.68529479265214 98.88954973220825 110.05177493453027 97.90557226538658Q111.4182550764084 96.92159479856491 111.4182550764084 95.03332614898682Q111.4182550764084 93.76894652843475 110.81926839113237 92.86033979058266Q110.22028170585634 91.95173305273056 109.0751011824608 91.45551058650017Q107.92992065906526 90.95928812026978 106.29366360664369 90.95928812026978H100.51762901306154ZM100.51762901306154 87.92985153198242H106.06921218395235Q107.47271399259569 87.92985153198242 108.4727960085869 87.47065073251724Q109.47287802457811 87.01144993305206 110.00462807774545 86.16177904605865Q110.5363781309128 85.31210815906525 110.5363781309128 84.15198683738708Q110.5363781309128 82.41180485486984 109.3520181632042 81.3929634988308Q108.16765819549562 80.37412214279175 106.06921218395235 80.37412214279175H100.51762901306154Z" fill="#FFFFFF"/><path d="M124.18246381044389 102.0 133.16391520261766 77.263671875H137.61441879034044L146.52913056373598 102.0H142.51689849853517L137.75688074588777 88.04800796508789Q137.1735046362877 86.27464109659195 136.49699248433114 84.16757917404175Q135.8204803323746 82.06051725149155 134.87385790109636 78.93676871061325H135.91642873048784Q134.96382997989656 82.06051725149155 134.28432966828348 84.16757917404175Q133.6048293566704 86.27464109659195 133.0018635249138 88.04800796508789L128.10139618873598 102.0ZM129.1632537698746 95.57749849557877V92.44314295053482H141.5513287639618V95.57749849557877Z" fill="#FFFFFF"/><path d="M166.98719076871873 102.3984375Q163.62836556196214 102.3984375 161.04715596199037 100.77663031220436Q158.4659463620186 99.15482312440872 156.9975384628773 96.27744019031525Q155.52913056373598 93.40005725622177 155.52913056373598 89.6484375Q155.52913056373598 85.82775670289993 157.00716663956644 82.95186784863472Q158.4852027153969 80.0759789943695 161.0732190167904 78.47060668468475Q163.6612353181839 76.865234375 166.96328549146654 76.865234375Q168.98967014312746 76.865234375 170.76404319763185 77.48248034715652Q172.53841625213624 78.09972631931305 173.93112005352975 79.23228442668915Q175.32382385492326 80.36484253406525 176.2428861117363 81.9184160232544Q177.16194836854936 83.47198951244354 177.45048461914064 85.36124610900879H173.70586560726167Q173.4505324816704 84.2147381901741 172.85602803587915 83.27209794521332Q172.2615235900879 82.32945770025253 171.38080735564233 81.64812690019608Q170.50009112119676 80.96679610013962 169.39591749072076 80.59740981459618Q168.29174386024476 80.22802352905273 167.01408420562746 80.22802352905273Q164.67193041801454 80.22802352905273 162.9199624812603 81.41138643026352Q161.1679945445061 82.5947493314743 160.201282337904 84.71128794550896Q159.2345701313019 86.82782655954361 159.2345701313019 89.6484375Q159.2345701313019 92.45244687795639 160.20277641773225 94.5621787905693Q161.1709827041626 96.67191070318222 162.92743288040162 97.85377952456474Q164.68388305664064 99.03564834594727 167.0320131635666 99.03564834594727Q168.99365840911867 99.03564834594727 170.56002099871637 98.195605635643Q172.12638358831407 97.35556292533875 173.04794003129007 95.85527321696281Q173.96949647426607 94.35498350858688 173.96949647426607 92.37274843454361L175.01605556964876 92.43749392032623H167.85346625804902V89.37186604738235H177.6058750009537V92.20607823133469Q177.6058750009537 95.15451329946518 176.21217413306238 97.45665118098259Q174.81847326517106 99.7587890625 172.4236993944645 101.07861328125Q170.02892552375795 102.3984375 166.98719076871873 102.3984375Z" fill="#FFFFFF"/><path d="M186.6058750009537 102.0V77.263671875H195.76693718194963Q198.42252044439317 77.263671875 200.35610242247583 78.20215716958046Q202.28968440055849 79.14064246416092 203.3375739312172 80.87052345275879Q204.38546346187593 82.60040444135666 204.38546346187593 84.97077298164368Q204.38546346187593 87.33815336227417 203.31034712553026 89.0695284307003Q202.23523078918458 90.80090349912643 200.27442200541498 91.74619549512863Q198.31361322164537 92.69148749113083 195.65802995920183 92.69148749113083H188.54525141477586V89.49139243364334H195.5926238155365Q197.196671769619 89.49139243364334 198.3468315458298 88.94237712025642Q199.49699132204057 88.3933618068695 200.12303812861444 87.37535083293915Q200.7490849351883 86.35733985900879 200.7490849351883 84.97077298164368Q200.7490849351883 83.56760454177856 200.12303812861444 82.56470105051994Q199.49699132204057 81.56179755926132 198.3468315458298 81.0127822458744Q197.196671769619 80.46376693248749 195.5926238155365 80.46376693248749H190.2993619298935V102.0Z" fill="#FFFFFF"/><line x1="212.89" y1="102" x2="212.89" y2="62" stroke="#FFFFFF" stroke-width="3" stroke-linecap="round"/><path d="M214.89 62 L234.89 67.5 L214.89 73 Z" fill="#DD5436"/><path d="M225.38546346187593 102.0V77.263671875H234.54652564287187Q237.2021089053154 77.263671875 239.13569088339807 78.20215716958046Q241.06927286148073 79.14064246416092 242.11716239213945 80.87052345275879Q243.16505192279817 82.60040444135666 243.16505192279817 84.97077298164368Q243.16505192279817 87.33815336227417 242.0899355864525 89.0695284307003Q241.01481925010683 90.80090349912643 239.05401046633722 91.74619549512863Q237.0932016825676 92.69148749113083 234.43761842012407 92.69148749113083H227.3248398756981V89.49139243364334H234.37221227645875Q235.97626023054124 89.49139243364334 237.12642000675203 88.94237712025642Q238.2765797829628 88.3933618068695 238.90262658953668 87.37535083293915Q239.52867339611055 86.35733985900879 239.52867339611055 84.97077298164368Q239.52867339611055 83.56760454177856 238.90262658953668 82.56470105051994Q238.2765797829628 81.56179755926132 237.12642000675203 81.0127822458744Q235.97626023054124 80.46376693248749 234.37221227645875 80.46376693248749H229.07895039081575V102.0Z" fill="#FFFFFF"/><path d="M252.16505192279817 102.0V77.263671875H268.80477552175523V80.49364852905273H255.858538851738V87.79272347688675H267.84487305641176V90.98684221506119H255.858538851738V98.77002334594727H268.80477552175523V102.0Z" fill="#FFFFFF"/><path d="M277.80477552175523 102.0V77.263671875H287.2244923567772Q289.88007561922075 77.263671875 291.8136575973034 78.20215716958046Q293.74723957538606 79.14064246416092 294.7951291060448 80.87052345275879Q295.8430186367035 82.60040444135666 295.8430186367035 84.97077298164368Q295.8430186367035 87.32620072364807 294.7317110157013 89.05242985486984Q293.6204033946991 90.77865898609161 291.62572778820993 91.71116796135902Q289.63105218172075 92.64367693662643 286.968165204525 92.64367693662643H279.9310846781731V89.50334507226944H287.07740579605104Q288.66784034729005 89.50334507226944 289.81800012350084 88.951341599226Q290.9681598997116 88.39933812618256 291.58740000486375 87.37833899259567Q292.2066401100159 86.35733985900879 292.2066401100159 84.97077298164368Q292.2066401100159 83.56760454177856 291.580593303442 82.56171289086342Q290.95454649686815 81.55582123994827 289.80438672065736 81.00381776690483Q288.6542269444466 80.45181429386139 287.0501789903641 80.45181429386139H281.49826245069505V102.0ZM292.0728275036812 102.0 286.2038387513161 90.85902416706085H290.25094078540803L296.2255152320862 102.0Z" fill="#FFFFFF"/><path d="M181.2722498035431 132.0V123.9970703125H182.2927576160431V131.09765625H185.9988123035431V132.0Z" fill="#B8C7BF"/><path d="M193.4919763660431 132.0V123.9970703125H194.5124841785431V131.09765625H198.2185388660431V132.0Z" fill="#B8C7BF"/><path d="M208.9504724597931 132.107421875Q207.9245935535431 132.107421875 207.1216150379181 131.610595703125Q206.3186365222931 131.11376953125 205.8594080066681 130.192626953125Q205.4001794910431 129.271484375 205.4001794910431 128.00390625Q205.4001794910431 126.73095703125 205.8594080066681 125.809814453125Q206.3186365222931 124.888671875 207.1216150379181 124.38916015625Q207.9245935535431 123.8896484375 208.9504724597931 123.8896484375Q209.5574060535431 123.8896484375 210.0972009754181 124.06689453125Q210.6369958972931 124.244140625 211.0666833972931 124.585205078125Q211.4963708972931 124.92626953125 211.7837244129181 125.412353515625Q212.0710779285431 125.8984375 212.1784998035431 126.51611328125H211.1579919910431Q211.0720544910431 126.1025390625 210.8652673816681 125.791015625Q210.6584802722931 125.4794921875 210.3603845691681 125.2646484375Q210.0622888660431 125.0498046875 209.7024255847931 124.9423828125Q209.3425623035431 124.8349609375 208.9504724597931 124.8349609375Q208.2307458972931 124.8349609375 207.6506677722931 125.2001953125Q207.0705896472931 125.5654296875 206.7322107410431 126.271728515625Q206.3938318347931 126.97802734375 206.3938318347931 128.00390625Q206.3938318347931 129.0244140625 206.7348962879181 129.730712890625Q207.0759607410431 130.43701171875 207.6560388660431 130.799560546875Q208.2361169910431 131.162109375 208.9504724597931 131.162109375Q209.3425623035431 131.162109375 209.7024255847931 131.052001953125Q210.0622888660431 130.94189453125 210.3603845691681 130.729736328125Q210.6584802722931 130.517578125 210.8652673816681 130.203369140625Q211.0720544910431 129.88916015625 211.1579919910431 129.48095703125H212.1784998035431Q212.0764490222931 130.09326171875 211.7890955066681 130.57666015625Q211.5017419910431 131.06005859375 211.0720544910431 131.40380859375Q210.6423669910431 131.74755859375 210.1025720691681 131.927490234375Q209.5627771472931 132.107421875 208.9504724597931 132.107421875Z" fill="#B8C7BF"/><line x1="138.31" y1="128" x2="168.31" y2="128" stroke="#4A6B5C" stroke-width="1"/><line x1="224.78" y1="128" x2="254.78" y2="128" stroke="#4A6B5C" stroke-width="1"/></svg>
