<svg xmlns="http://www.w3.org/2000/svg" viewBox="0 0 820 372" width="820" height="372"><g fill="#0F3B2E" ><path d="M389.5 -16.75Q315.75 -16.75 252.625 11.125Q189.5 39 142.0 88.875Q94.5 138.75 68.25 205.625Q42 272.5 42 350.75Q42 425.25 68.875 488.625Q95.75 552 144.0 599.375Q192.25 646.75 257.0 673.5Q321.75 700.25 397.5 700.5Q429.25 700.5 464.75 694.625Q500.25 688.75 534.0 676.75Q567.75 664.75 593 647.5Q612.75 634.5 628.375 620.125Q644 605.75 644.25 585.75Q644.75 575.5 639.75 563.25Q634.75 551 625.5 537.5Q610.25 515 594.5 504.75Q578.75 494.5 564.25 494.5Q555.5 494.5 544.625 499.875Q533.75 505.25 515.25 516.5Q505.75 522.75 486.875 530.0Q468 537.25 443.625 542.625Q419.25 548 392.75 548Q335.75 548 290.75 522.625Q245.75 497.25 220.125 452.0Q194.5 406.75 194.25 348.25Q194.5 288.25 220.875 240.625Q247.25 193 292.375 165.0Q337.5 137 393.5 137Q414 137 434.375 139.0Q454.75 141 474.5 145.5Q494.25 150 510.25 157V278.75H402.5Q386.25 278.75 372.5 282.0Q358.75 285.25 350.5 298.875Q342.25 312.5 342.25 344.5Q342.25 376.75 351.25 390.375Q360.25 404 374.625 407.0Q389 410 404.5 410H593.75Q627 409.25 641.0 398.0Q655 386.75 658.75 370.5Q662.5 354.25 662.5 335.25V116.5Q662.5 92.5 640.75 67.125Q619 41.75 581 22.5Q556.75 10 526.5 1.375Q496.25 -7.25 461.875 -12.0Q427.5 -16.75 389.5 -16.75Z" transform="translate(242.180 96.000) scale(0.05800 -0.05800)"/><path d="M367 -19Q294.63461538461536 -19 231.44230769230768 8.375Q168.25 35.75 120.375 84.5Q72.5 133.25 45.25 197.2922794117647Q18 261.3345588235294 18 334.5257352941176Q18 409.75 44.40625 475.60526315789474Q70.8125 541.4605263157895 117.53125 591.1052631578948Q164.25 640.75 226.14080459770116 668.75Q288.0316091954023 696.75 358.617816091954 696.75Q431.25 696.75 494.4555555555556 669.4607142857143Q557.6611111111112 642.1714285714286 605.0652777777777 593.1517857142858Q652.4694444444444 544.1321428571429 679.4847222222222 478.94107142857143Q706.5 413.75 706.5 338.3269230769231Q706.5 264.9423076923077 680.125 200.22115384615384Q653.75 135.5 606.7735849056603 86.01960784313725Q559.7971698113207 36.53921568627451 498.52358490566036 8.769607843137255Q437.25 -19 367 -19ZM361.75697674418603 133.25Q401.75 133.25 436.875 149.0Q472 164.75 498.375 192.5Q524.75 220.25 539.5 257.84030837004406Q554.25 295.4306167400881 554.25 338.69493392070484Q554.25 381.25 539.125 418.5Q524 455.75 497.5 484.25Q471 512.75 436.42056074766356 528.625Q401.8411214953271 544.5 362.42056074766356 544.5Q323 544.5 288.25 528.625Q253.5 512.75 227.0 484.375Q200.5 456 185.375 418.51480263157896Q170.25 381.0296052631579 170.25 338.2894736842105Q170.25 296.25 185.5125 258.8508064516129Q200.775 221.4516129032258 227.1375 193.2258064516129Q253.5 165 287.9767441860465 149.125Q322.45348837209303 133.25 361.75697674418603 133.25Z" transform="translate(293.650 96.000) scale(0.05800 -0.05800)"/><path d="M131.25 -9.5Q94.5 -9.5 78.5 1.375Q62.5 12.25 58.75 30.0Q55 47.75 55 67V614Q55 633.5 58.625 650.875Q62.25 668.25 78.125 679.125Q94 690 131.25 690Q168.5 690 184.0 679.125Q199.5 668.25 203.25 650.875Q207 633.5 207 613.5V122.5H481.25Q498.25 122.5 513.0 119.625Q527.75 116.75 537.125 102.75Q546.5 88.75 546.5 56.75Q546.5 25.5 536.875 11.375Q527.25 -2.75 512.625 -6.125Q498 -9.5 481 -9.5Z" transform="translate(345.700 96.000) scale(0.05800 -0.05800)"/><path d="M126.25 -9.5Q89.75 -9.5 73.875 1.375Q58 12.25 54.375 30.125Q50.75 48 50.75 67.25V614.25Q50.75 657.5 67.875 673.75Q85 690 129.25 690H507.25Q527.25 690 544.125 686.25Q561 682.5 571.375 666.625Q581.75 650.75 581.75 613.25Q581.75 576.75 570.875 560.875Q560 545 542.625 541.375Q525.25 537.75 505.25 537.75H202.75V409.25H408.25Q428.25 409.25 443.75 405.875Q459.25 402.5 467.875 388.5Q476.5 374.5 476.5 341.5Q476.5 310.25 467.5 296.625Q458.5 283 443.0 280.125Q427.5 277.25 407.25 277.25H202.75V66.25Q202.75 47 199.0 29.625Q195.25 12.25 179.375 1.375Q163.5 -9.5 126.25 -9.5Z" transform="translate(388.470 96.000) scale(0.05800 -0.05800)"/><path d="M126.25 -9.5Q89.75 -9.5 73.875 1.375Q58 12.25 54.375 30.125Q50.75 48 50.75 67.25V614.25Q50.75 657.5 67.875 673.75Q85 690 129.25 690H507.25Q527.25 690 544.25 686.25Q561.25 682.5 572.0 666.625Q582.75 650.75 582.75 613.25Q582.75 576.75 571.875 560.875Q561 545 543.625 541.375Q526.25 537.75 506.25 537.75H202.75V409.25H409.25Q429.25 409.25 444.375 405.875Q459.5 402.5 468.5 388.875Q477.5 375.25 477.5 342.25Q477.5 311 468.5 297.0Q459.5 283 443.5 280.125Q427.5 277.25 407.25 277.25H202.75V142.75H507.25Q527.25 142.75 544.25 139.0Q561.25 135.25 572.0 119.375Q582.75 103.5 582.75 66.25Q582.75 29.75 571.875 13.875Q561 -2 543.625 -5.75Q526.25 -9.5 506.25 -9.5Z" transform="translate(434.372 96.000) scale(0.05800 -0.05800)"/><path d="M124 -8.75Q87.5 -8.75 71.625 2.125Q55.75 13 52.125 30.875Q48.5 48.75 48.5 68V614.5Q48.5 633.5 52.375 650.75Q56.25 668 72.125 679.0Q88 690 125 690H332.5Q374.25 690 417.125 674.875Q460 659.75 496.0 629.0Q532 598.25 554.125 552.125Q576.25 506 576.25 443.25Q576.25 401 563.625 361.75Q551 322.5 525.875 289.875Q500.75 257.25 464.0 233.625Q427.25 210 378.75 199.5H200.5V67Q200.5 47.75 196.75 30.375Q193 13 177.125 2.125Q161.25 -8.75 124 -8.75ZM546.25 11Q509.25 -16.25 487.125 -10.375Q465 -4.5 440.75 28.75L264.75 280.75L436.25 303L565 118.25Q581.75 93.75 586.125 76.75Q590.5 59.75 581.0 44.75Q571.5 29.75 546.25 11ZM200.5 350.25H340Q353.5 350.25 368.5 355.375Q383.5 360.5 395.875 371.875Q408.25 383.25 416.25 401.0Q424.25 418.75 424.25 444.25Q424.25 472.75 412.375 493.75Q400.5 514.75 379.5 526.25Q358.5 537.75 330.5 537.75H200.5Z" transform="translate(479.752 96.000) scale(0.05800 -0.05800)"/><path d="M94 378Q79.5 378 68.0 393.875Q56.5 409.75 48.5 435.625Q40.5 461.5 34.875 492.125Q29.25 522.75 26.75 552.0Q24.25 581.25 24.25 602.75Q24.25 623.25 27.25 642.75Q30.25 662.25 44.75 675.125Q59.25 688 95 688Q130 688 144.375 674.75Q158.75 661.5 161.75 642.0Q164.75 622.5 164.75 602.75Q164.75 581.25 162.25 552.0Q159.75 522.75 154.125 492.125Q148.5 461.5 140.0 435.625Q131.5 409.75 120.0 393.875Q108.5 378 94 378Z" transform="translate(525.190 96.000) scale(0.05800 -0.05800)"/><path d="M271 -19.25Q217.75 -19.25 178.25 -6.25Q138.75 6.75 111.5 25.5Q84.25 44.25 67.875 61.875Q51.5 79.5 45.5 88.75Q28.75 110.5 24.625 127.375Q20.5 144.25 29.0 161.0Q37.5 177.75 59 197.5Q79.5 216.25 98.25 217.75Q117 219.25 134.875 208.25Q152.75 197.25 169.75 177Q194 147.5 217.375 136.0Q240.75 124.5 267 124.5Q300 124.5 323.0 132.875Q346 141.25 358.125 158.5Q370.25 175.75 370.25 202.75Q370.25 224.75 353.625 238.375Q337 252 309.625 261.75Q282.25 271.5 248.625 281.0Q215 290.5 181.5 303.75Q159.25 312 137.875 323.75Q116.5 335.5 97.875 350.75Q79.25 366 65.5 387.0Q51.75 408 44.125 435.0Q36.5 462 36.5 496.75Q36.5 555.75 65.75 601.625Q95 647.5 146.625 674.125Q198.25 700.75 264.5 700.75Q309.5 700.75 343.25 693.0Q377 685.25 400.0 674.125Q423 663 436.625 652.5Q450.25 642 455.25 636.25Q483.25 610 486.0 591.375Q488.75 572.75 465 539.75Q439.5 505 415.25 501.0Q391 497 359.75 518Q348 529.25 335.875 538.25Q323.75 547.25 307.25 552.5Q290.75 557.75 263.5 557.75Q248.25 557.75 234.125 553.25Q220 548.75 209.875 540.75Q199.75 532.75 193.75 521.25Q187.75 509.75 187.75 495.75Q187.75 472.5 203.125 458.5Q218.5 444.5 244.25 436.125Q270 427.75 301.375 420.25Q332.75 412.75 365.5 402.75Q395.5 393 423.875 378.5Q452.25 364 474.25 341.75Q496.25 319.5 509.625 286.5Q523 253.5 523 205.75Q523 145.75 499.875 102.625Q476.75 59.5 439.0 32.75Q401.25 6 357.125 -6.625Q313 -19.25 271 -19.25Z" transform="translate(546.152 96.000) scale(0.05800 -0.05800)"/></g><g transform="rotate(8 641.8199999999999 56)"><line x1="641.82" y1="56.00" x2="641.82" y2="145.00" stroke="#0F3B2E" stroke-width="3.0" stroke-linecap="round"/><path d="M 641.82 56.00 L 591.82 93.00 Q 600.15 104.00 608.49 96.00 Z" fill="#0F3B2E"/><path d="M 641.82 56.00 L 608.49 96.00 Q 616.82 106.20 625.15 98.20 Z" fill="#0F3B2E"/><path d="M 641.82 56.00 L 625.15 98.20 Q 633.49 107.00 641.82 99.00 Z" fill="#0F3B2E"/><path d="M 641.82 56.00 L 641.82 99.00 Q 650.15 107.00 658.49 98.20 Z" fill="#0F3B2E"/><path d="M 641.82 56.00 L 658.49 98.20 Q 666.82 106.20 675.15 96.00 Z" fill="#0F3B2E"/><path d="M 641.82 56.00 L 675.15 96.00 Q 683.49 104.00 691.82 93.00 Z" fill="#0F3B2E"/><circle cx="641.82" cy="56.00" r="3.0" fill="#0F3B2E"/></g><g fill="#0F3B2E" ><path d="M239 325H287Q328 325 353.5 345.5Q379 366 379 404Q379 442 355.5 462.5Q332 483 287 483Q271 483 260.5 482.5Q250 482 239 480ZM298 188H65V549Q65 570 77.0 581.5Q89 593 108 600Q142 612 189.0 617.5Q236 623 273 623Q410 623 483.5 564.0Q557 505 557 404Q557 339 525.0 290.5Q493 242 435.0 215.0Q377 188 298 188ZM65 264H240V1Q229 -2 206.0 -5.0Q183 -8 159 -8Q107 -8 86.0 10.5Q65 29 65 75Z" transform="translate(24.575 252.000) scale(0.15000 -0.15000)"/><path d="M260 108Q277 108 297.5 111.5Q318 115 328 121V201L256 195Q228 193 210.0 183.0Q192 173 192 153Q192 133 207.5 120.5Q223 108 260 108ZM252 501Q361 501 426.5 456.5Q492 412 492 318V94Q492 68 477.5 51.5Q463 35 443 23Q411 4 365.0 -6.0Q319 -16 260 -16Q155 -16 91.5 24.5Q28 65 28 147Q28 216 69.5 253.0Q111 290 196 299L327 313V320Q327 349 301.5 361.5Q276 374 228 374Q191 374 154.5 366.0Q118 358 89 346Q76 355 67.0 373.5Q58 392 58 412Q58 460 109 480Q138 491 177.5 496.0Q217 501 252 501Z" transform="translate(111.725 252.000) scale(0.15000 -0.15000)"/><path d="M48 621Q48 659 74.0 685.0Q100 711 141 711Q182 711 208.0 685.0Q234 659 234 621Q234 584 208.0 557.5Q182 531 141 531Q100 531 74.0 557.5Q48 584 48 621ZM56 264H226V1Q215 -2 194.5 -5.0Q174 -8 150 -8Q101 -8 78.5 9.0Q56 26 56 72ZM226 175H56V479Q67 482 87.5 485.0Q108 488 132 488Q182 488 204.0 471.5Q226 455 226 408Z" transform="translate(193.325 252.000) scale(0.15000 -0.15000)"/><path d="M222 343V229H52V369Q52 398 67.5 419.5Q83 441 108 457Q143 478 190.0 489.0Q237 500 287 500Q396 500 396 423Q396 405 391.0 389.5Q386 374 379 363Q369 365 355.0 366.0Q341 367 324 367Q299 367 271.0 361.0Q243 355 222 343ZM52 264H222V1Q211 -2 190.5 -5.0Q170 -8 146 -8Q97 -8 74.5 9.0Q52 26 52 72Z" transform="translate(235.625 252.000) scale(0.15000 -0.15000)"/><path d="M263 186H49Q42 197 36.0 215.0Q30 233 30 253Q30 290 47.0 306.5Q64 323 91 323H305Q311 313 317.5 294.5Q324 276 324 256Q324 219 307.0 202.5Q290 186 263 186Z" transform="translate(297.275 252.000) scale(0.15000 -0.15000)"/><path d="M320 459H314Q305 431 294.0 398.0Q283 365 271.0 328.5Q259 292 248 253L226 140Q220 120 215.5 101.0Q211 82 206.5 65.0Q202 48 198.0 32.0Q194 16 190 1Q177 -3 161.0 -7.0Q145 -11 123 -11Q73 -11 48.0 6.5Q23 24 23 55Q23 69 27.0 83.0Q31 97 36 116Q44 148 60.0 198.5Q76 249 95.5 307.5Q115 366 134.5 422.0Q154 478 170.0 522.5Q186 567 194 588Q211 598 246.0 607.0Q281 616 315 616Q365 616 404.0 601.5Q443 587 453 555Q471 504 491.5 435.5Q512 367 533.5 292.5Q555 218 575.0 147.5Q595 77 610 21Q598 8 574.0 -1.0Q550 -10 517 -10Q468 -10 449.0 6.5Q430 23 421 57L396 153L376 256Q366 295 356.0 331.0Q346 367 337.0 399.5Q328 432 320 459ZM151 126 220 261H440L461 126Z" transform="translate(350.375 252.000) scale(0.15000 -0.15000)"/><path d="M263 186H49Q42 197 36.0 215.0Q30 233 30 253Q30 290 47.0 306.5Q64 323 91 323H305Q311 313 317.5 294.5Q324 276 324 256Q324 219 307.0 202.5Q290 186 263 186Z" transform="translate(444.425 252.000) scale(0.15000 -0.15000)"/><path d="M451 301Q451 213 407.5 169.0Q364 125 296 125Q283 125 266.5 126.5Q250 128 239 130V478Q254 480 268.5 481.0Q283 482 297 482Q344 482 378.5 461.5Q413 441 432.0 401.0Q451 361 451 301ZM631 304Q631 413 587.5 483.5Q544 554 466.5 588.5Q389 623 285 623Q247 623 199.0 618.5Q151 614 108 600Q89 593 77.0 581.5Q65 570 65 549V82Q65 30 120 9Q160 -6 210.5 -11.0Q261 -16 295 -16Q396 -16 471.5 19.5Q547 55 589.0 126.0Q631 197 631 304Z" transform="translate(497.525 252.000) scale(0.15000 -0.15000)"/><path d="M48 621Q48 659 74.0 685.0Q100 711 141 711Q182 711 208.0 685.0Q234 659 234 621Q234 584 208.0 557.5Q182 531 141 531Q100 531 74.0 557.5Q48 584 48 621ZM56 264H226V1Q215 -2 194.5 -5.0Q174 -8 150 -8Q101 -8 78.5 9.0Q56 26 56 72ZM226 175H56V479Q67 482 87.5 485.0Q108 488 132 488Q182 488 204.0 471.5Q226 455 226 408Z" transform="translate(597.425 252.000) scale(0.15000 -0.15000)"/><path d="M326 367Q276 367 239.5 335.0Q203 303 203 241Q203 179 238.0 149.0Q273 119 325 119Q355 119 378.5 126.5Q402 134 418 142Q437 128 446.5 112.0Q456 96 456 73Q456 33 416.5 9.0Q377 -15 304 -15Q221 -15 159.5 14.0Q98 43 64.5 100.5Q31 158 31 241Q31 329 68.0 386.5Q105 444 166.0 472.5Q227 501 299 501Q370 501 409.5 475.0Q449 449 449 408Q449 389 440.0 372.5Q431 356 419 344Q402 352 378.0 359.5Q354 367 326 367Z" transform="translate(639.725 252.000) scale(0.15000 -0.15000)"/><path d="M134 167 128 279 359 317Q357 337 339.0 357.0Q321 377 283 377Q243 377 216.5 351.0Q190 325 188 277L194 193Q204 147 239.5 129.0Q275 111 319 111Q361 111 399.0 122.0Q437 133 460 146Q476 136 487.0 118.0Q498 100 498 80Q498 47 473.5 25.5Q449 4 406.0 -6.0Q363 -16 307 -16Q229 -16 166.5 13.5Q104 43 67.5 102.0Q31 161 31 250Q31 316 52.5 364.0Q74 412 110.0 442.0Q146 472 190.5 486.5Q235 501 282 501Q353 501 406.0 473.5Q459 446 489.0 398.5Q519 351 519 289Q519 255 500.0 237.0Q481 219 447 214Z" transform="translate(713.075 252.000) scale(0.15000 -0.15000)"/></g><g transform="rotate(-12 368.0 300.0)"><rect x="340.0" y="272" width="56" height="56" rx="10.08" fill="none" stroke="#0F3B2E" stroke-width="5.6"/><circle cx="355.68" cy="287.68" r="4.76" fill="#0F3B2E"/><circle cx="380.32" cy="312.32" r="4.76" fill="#0F3B2E"/></g><g transform="rotate(10 456.0 306.0)"><rect x="428.0" y="278" width="56" height="56" rx="10.08" fill="none" stroke="#0F3B2E" stroke-width="5.6"/><circle cx="444.80" cy="292.00" r="4.76" fill="#0F3B2E"/><circle cx="467.20" cy="292.00" r="4.76" fill="#0F3B2E"/><circle cx="444.80" cy="306.00" r="4.76" fill="#0F3B2E"/><circle cx="467.20" cy="306.00" r="4.76" fill="#0F3B2E"/><circle cx="444.80" cy="320.00" r="4.76" fill="#0F3B2E"/><circle cx="467.20" cy="320.00" r="4.76" fill="#0F3B2E"/></g></svg>